<?xml version="1.0" encoding="UTF-8"?>
<svg version="1.1" xmlns="http://www.w3.org/2000/svg" width="594" height="594">
<path d="M0 0 C1.97559908 -0.00417842 3.95119576 -0.00965871 5.92678803 -0.01631981 C11.3279288 -0.03072648 16.72891634 -0.02654464 22.13006532 -0.019153 C27.96593097 -0.01441177 33.80176393 -0.02693965 39.63761902 -0.03717041 C51.06000538 -0.05434522 62.4823367 -0.05520112 73.90473262 -0.04995751 C83.19157208 -0.045912 92.47839531 -0.04736389 101.76523399 -0.05270576 C103.1016149 -0.05346265 104.43799581 -0.05421863 105.77437672 -0.05497371 C107.78841633 -0.05611896 109.80245595 -0.05726884 111.81649556 -0.05843295 C130.53096919 -0.0691314 149.24543683 -0.07386998 167.9599123 -0.06596279 C168.66474066 -0.06566562 169.36956902 -0.06536844 170.09575582 -0.06506227 C175.81872175 -0.06261356 181.5416876 -0.06000186 187.26465344 -0.05737813 C209.58175291 -0.04727807 231.89877712 -0.05562919 254.21586609 -0.07887268 C279.31598041 -0.10497271 304.41604944 -0.11778585 329.51617783 -0.11068493 C332.1950014 -0.10996892 334.87382497 -0.10929453 337.55264854 -0.10864449 C338.87057113 -0.10832237 340.18849371 -0.10800026 341.54635334 -0.10766838 C350.81641287 -0.10636915 360.08643476 -0.11470212 369.35648537 -0.12693596 C380.6619075 -0.14167123 391.96722434 -0.14227599 403.27264444 -0.12486505 C409.03666633 -0.11636356 414.80050025 -0.11418487 420.56451225 -0.1295166 C425.84914463 -0.14339879 431.13342861 -0.13855504 436.41804101 -0.11927737 C438.32169201 -0.11552788 440.22537116 -0.11840869 442.12899701 -0.12888902 C462.71525463 -0.23409549 480.77615311 3.34816383 496.15263367 18.15330505 C496.88095398 18.8906488 497.60927429 19.62799255 498.35966492 20.38768005 C498.99517273 21.0012738 499.63068054 21.61486755 500.28544617 22.24705505 C513.98635411 36.46440521 515.81074024 54.37927789 515.74734497 73.07344055 C515.75152141 75.07832516 515.75700063 77.08320741 515.76366478 79.08808529 C515.77809726 84.5793467 515.77388149 90.07045773 515.76649797 95.56172729 C515.76176319 101.49095929 515.7742789 107.42015891 515.78451538 113.34938049 C515.80070984 124.28768384 515.80315005 135.225937 515.79821039 146.16424995 C515.7936485 156.2713675 515.79425827 166.37846728 515.80005074 176.48558426 C515.80080761 177.84273757 515.80156359 179.19989088 515.80231868 180.55704419 C515.80346391 182.60229747 515.80461379 184.64755076 515.80577792 186.69280404 C515.81647869 205.70092445 515.82121252 224.70903896 515.81330776 243.71716118 C515.812862 244.79133528 515.812862 244.79133528 515.81240724 245.88720988 C515.80995844 251.70211304 515.80734679 257.51701613 515.8047231 263.33191922 C515.7946216 286.01117882 515.80297595 308.69036437 515.82621765 331.36961365 C515.85230533 356.86704837 515.86513417 382.36443853 515.8580299 407.8618871 C515.85731387 410.58197283 515.85663948 413.30205857 515.85598946 416.02214432 C515.85581965 416.69186745 515.85564984 417.36159058 515.85547488 418.05160835 C515.85317455 428.14915205 515.86113615 438.24665429 515.87428093 448.34418869 C515.88900134 459.83126963 515.88964033 471.31824695 515.87221002 482.80532585 C515.86369648 488.66414863 515.86155939 494.52278629 515.87686157 500.38159943 C515.89070763 505.74942204 515.88594618 511.11690094 515.86662234 516.48470367 C515.86286183 518.42200823 515.86578572 520.35934032 515.87623399 522.29662035 C515.97589768 542.19789218 511.44312993 559.20542764 497.14482117 573.6962738 C480.46876801 589.81100119 461.99098157 592.85235589 439.71932983 592.77536011 C437.74373075 592.77953853 435.76813407 592.78501882 433.7925418 592.79167992 C428.39140104 592.80608659 422.99041349 592.80190474 417.58926451 592.79451311 C411.75339886 592.78977188 405.9175659 592.80229976 400.08171082 592.81253052 C388.65932445 592.82970532 377.23699313 592.83056122 365.81459721 592.82531761 C356.52775775 592.82127211 347.24093453 592.822724 337.95409584 592.82806587 C336.61771493 592.82882275 335.28133403 592.82957873 333.94495312 592.83033382 C331.9309135 592.83147907 329.91687388 592.83262895 327.90283428 592.83379306 C309.18836065 592.84449151 290.473893 592.84923009 271.75941753 592.8413229 C271.05458917 592.84102573 270.34976081 592.84072855 269.62357401 592.84042237 C263.90060809 592.83797367 258.17764224 592.83536197 252.45467639 592.83273824 C230.13757692 592.82263817 207.82055272 592.8309893 185.50346375 592.85423279 C160.40334942 592.88033281 135.30328039 592.89314595 110.203152 592.88604504 C107.52432844 592.88532903 104.84550487 592.88465463 102.16668129 592.88400459 C100.84875871 592.88368248 99.53083612 592.88336036 98.17297649 592.88302849 C88.90291697 592.88172926 79.63289508 592.89006223 70.36284447 592.90229607 C59.05742234 592.91703133 47.75210549 592.9176361 36.4466854 592.90022516 C30.6826635 592.89172367 24.91882958 592.88954497 19.15481758 592.90487671 C13.8701852 592.9187589 8.58590123 592.91391514 3.30128882 592.89463747 C1.39763782 592.89088799 -0.50604133 592.8937688 -2.40966717 592.90424912 C-22.99592479 593.0094556 -41.05682327 589.42719627 -56.43330383 574.62205505 C-57.16162415 573.8847113 -57.88994446 573.14736755 -58.64033508 572.38768005 C-59.2758429 571.7740863 -59.91135071 571.16049255 -60.56611633 570.52830505 C-74.26702428 556.3109549 -76.0914104 538.39608222 -76.02801514 519.70191956 C-76.03219158 517.69703494 -76.0376708 515.6921527 -76.04433495 513.68727481 C-76.05876742 508.19601341 -76.05455165 502.70490238 -76.04716814 497.21363282 C-76.04243336 491.28440082 -76.05494907 485.3552012 -76.06518555 479.42597961 C-76.08138001 468.48767627 -76.08382022 457.5494231 -76.07888055 446.61111015 C-76.07431866 436.50399261 -76.07492844 426.39689283 -76.0807209 416.28977585 C-76.08147778 414.93262254 -76.08223376 413.57546923 -76.08298885 412.21831592 C-76.08413407 410.17306263 -76.08528395 408.12780935 -76.08644809 406.08255607 C-76.09714886 387.07443566 -76.10188269 368.06632115 -76.09397793 349.05819893 C-76.09368075 348.34208286 -76.09338358 347.62596679 -76.0930774 346.88815023 C-76.09062861 341.07324707 -76.08801695 335.25834398 -76.08539327 329.44344089 C-76.07529177 306.76418129 -76.08364612 284.08499574 -76.10688782 261.40574646 C-76.1329755 235.90831173 -76.14580434 210.41092158 -76.13870007 184.91347301 C-76.13798404 182.19338728 -76.13730965 179.47330154 -76.13665962 176.75321579 C-76.13640491 175.74863109 -76.13640491 175.74863109 -76.13614505 174.72375176 C-76.13384472 164.62620806 -76.14180632 154.52870582 -76.1549511 144.43117142 C-76.16967151 132.94409048 -76.1703105 121.45711316 -76.15288018 109.97003426 C-76.14436665 104.11121148 -76.14222955 98.25257381 -76.15753174 92.39376068 C-76.1713778 87.02593807 -76.16661635 81.65845916 -76.1472925 76.29065643 C-76.14353199 74.35335187 -76.14645589 72.41601979 -76.15690415 70.47873975 C-76.25656785 50.57746793 -71.72380009 33.56993247 -57.42549133 19.0790863 C-40.74943817 2.96435892 -22.27165174 -0.07699578 0 0 Z " fill="#9350DA" transform="translate(77.64033508300781,1.6123199462890625)"/>
<path d="M0 0 C3.64364263 0.91091066 6.22136866 2.01979052 9.5234375 3.73828125 C10.61551514 4.30498535 11.70759277 4.87168945 12.83276367 5.45556641 C14.58617065 6.37474854 14.58617065 6.37474854 16.375 7.3125 C17.59798736 7.94985248 18.82105142 8.58705781 20.04418945 9.22412109 C27.47387497 13.10344284 34.84778236 17.07795466 42.1875 21.125 C50.06160499 25.46528199 58.02067004 29.60378158 66.0625 33.625 C67.08045654 34.13434082 68.09841309 34.64368164 69.1472168 35.16845703 C73.38633178 37.27206722 77.58573983 39.28626893 82 41 C82 41.66 82 42.32 82 43 C84.64 43.66 87.28 44.32 90 45 C90.0928125 44.11957031 90.185625 43.23914063 90.28125 42.33203125 C92.81918509 30.56649521 105.79373339 19.98546002 115.3984375 13.5625 C122.78482008 9.12623419 130.66107646 6.10607625 139 4 C140.08861328 3.7215625 140.08861328 3.7215625 141.19921875 3.4375 C161.98925601 0.1899628 179.71039413 5.19103326 196.765625 16.8984375 C198.92697798 18.52312801 200.97381668 20.21069823 203 22 C203.87978516 22.74056641 203.87978516 22.74056641 204.77734375 23.49609375 C217.41024649 34.98315498 225.2929934 52.90678159 226.203125 69.76171875 C226.30597263 78.37520736 225.49812541 85.69604608 223 94 C222.7834375 94.94617188 222.566875 95.89234375 222.34375 96.8671875 C220.76860691 103.63655244 218.22418874 108.51142824 214 114 C213.40058594 114.79019531 212.80117188 115.58039063 212.18359375 116.39453125 C208.51070926 121.10621135 204.64438169 125.65067993 200.6875 130.125 C199.86636719 131.05570313 199.04523438 131.98640625 198.19921875 132.9453125 C196 135 196 135 193 135 C193 160.74 193 186.48 193 213 C139.21 213 85.42 213 30 213 C30 191.22 30 169.44 30 147 C22.31209487 149.96613327 22.31209487 149.96613327 15.15625 153.578125 C14.38539062 154.01640625 13.61453125 154.4546875 12.8203125 154.90625 C12.05460937 155.3496875 11.28890625 155.793125 10.5 156.25 C8.9292586 157.15482838 7.3564418 158.05606662 5.78125 158.953125 C4.7612793 159.54335449 4.7612793 159.54335449 3.72070312 160.14550781 C2 161 2 161 0 161 C0 107.87 0 54.74 0 0 Z " fill="#9350D8" transform="translate(59,192)"/>
<path d="M0 0 C3.64364263 0.91091066 6.22136866 2.01979052 9.5234375 3.73828125 C10.61551514 4.30498535 11.70759277 4.87168945 12.83276367 5.45556641 C14.58617065 6.37474854 14.58617065 6.37474854 16.375 7.3125 C17.59798736 7.94985248 18.82105142 8.58705781 20.04418945 9.22412109 C27.47387497 13.10344284 34.84778236 17.07795466 42.1875 21.125 C50.06160499 25.46528199 58.02067004 29.60378158 66.0625 33.625 C67.08045654 34.13434082 68.09841309 34.64368164 69.1472168 35.16845703 C73.38633178 37.27206722 77.58573983 39.28626893 82 41 C82 41.66 82 42.32 82 43 C84.64 43.66 87.28 44.32 90 45 C90.0928125 44.11957031 90.185625 43.23914063 90.28125 42.33203125 C92.81918509 30.56649521 105.79373339 19.98546002 115.3984375 13.5625 C122.78482008 9.12623419 130.66107646 6.10607625 139 4 C140.08861328 3.7215625 140.08861328 3.7215625 141.19921875 3.4375 C161.98925601 0.1899628 179.71039413 5.19103326 196.765625 16.8984375 C198.92697798 18.52312801 200.97381668 20.21069823 203 22 C203.87978516 22.74056641 203.87978516 22.74056641 204.77734375 23.49609375 C217.41024649 34.98315498 225.2929934 52.90678159 226.203125 69.76171875 C226.30597263 78.37520736 225.49812541 85.69604608 223 94 C222.7834375 94.94617188 222.566875 95.89234375 222.34375 96.8671875 C220.76723437 103.64245111 218.21543066 108.5007791 214 114 C213.4121875 114.80179687 212.824375 115.60359375 212.21875 116.4296875 C207.20110843 123.03076514 201.50578332 128.85232633 195 134 C194.34 134 193.68 134 193 134 C193 106.28 193 78.56 193 50 C139.21 50 85.42 50 30 50 C30 81.68 30 113.36 30 146 C3 160 3 160 0 161 C0 107.87 0 54.74 0 0 Z " fill="#FEFD4E" transform="translate(59,192)"/>
<path d="M0 0 C3.39117217 1.22659419 4.56604547 2.92391446 6.6953125 5.8046875 C9.15025015 9.25334438 9.15025015 9.25334438 12.16572571 12.15962219 C14.33378677 14.89182051 13.9294213 17.25515277 13.91088867 20.69604492 C13.91154579 21.72082695 13.91154579 21.72082695 13.91221619 22.76631165 C13.91012732 25.02288462 13.88679287 27.27871319 13.86328125 29.53515625 C13.85768561 31.10028172 13.85341536 32.66541244 13.85041809 34.23054504 C13.83896669 38.34885174 13.8094972 42.46684075 13.77630615 46.58502197 C13.74021431 51.52674545 13.7264455 56.46857519 13.70894623 61.41039276 C13.67985975 68.91704525 13.62237532 76.42300077 13.5703125 83.9296875 C24.1303125 83.9296875 34.6903125 83.9296875 45.5703125 83.9296875 C45.5703125 66.7696875 45.5703125 49.6096875 45.5703125 31.9296875 C52.2528125 32.084375 52.2528125 32.084375 59.0703125 32.2421875 C71.29958862 32.36366134 82.58909013 31.94142566 93.2265625 25.26171875 C95.5703125 23.9296875 95.5703125 23.9296875 99.5703125 23.9296875 C99.5703125 48.6796875 99.5703125 73.4296875 99.5703125 98.9296875 C46.4403125 98.9296875 -6.6896875 98.9296875 -61.4296875 98.9296875 C-61.4296875 76.8196875 -61.4296875 54.7096875 -61.4296875 31.9296875 C-51.4296875 25.9296875 -51.4296875 25.9296875 -45.4296875 23.9296875 C-45.4296875 43.7296875 -45.4296875 63.5296875 -45.4296875 83.9296875 C-35.1996875 83.9296875 -24.9696875 83.9296875 -14.4296875 83.9296875 C-14.4296875 58.5196875 -14.4296875 33.1096875 -14.4296875 6.9296875 C-11.4596875 5.2796875 -8.4896875 3.6296875 -5.4296875 1.9296875 C-2.4296875 -0.0703125 -2.4296875 -0.0703125 0 0 Z " fill="#FDFC4E" transform="translate(151.4296875,305.0703125)"/>
<path d="M0 0 C28.38 0 56.76 0 86 0 C86 26.73 86 53.46 86 81 C66.68940754 90.65529623 66.68940754 90.65529623 58 91 C56.92105469 91.0515625 55.84210938 91.103125 54.73046875 91.15625 C45.11932952 91.39778648 36.35131236 90.06441587 27 88 C27 87.34 27 86.68 27 86 C25.0509375 85.690625 25.0509375 85.690625 23.0625 85.375 C10.72341133 82.57942522 0.67099244 71.57699028 -6.8203125 61.9453125 C-8 60 -8 60 -8 57 C-7.22100342 56.59797363 -6.44200684 56.19594727 -5.6394043 55.78173828 C-2.65593115 54.24155515 0.32726138 52.70083182 3.31018066 51.15957642 C4.64321567 50.47081186 5.97630472 49.7821519 7.30944824 49.09359741 C16.20822236 44.49649428 25.09621242 39.88122058 33.9230957 35.14697266 C38.85098073 32.52631605 43.87468828 30.20859492 49 28 C45.47857174 25.11556896 41.57458679 23.13091056 37.53125 21.09375 C36.813927 20.7277771 36.096604 20.3618042 35.35754395 19.98474121 C33.07351014 18.81955475 30.78708117 17.65919233 28.5 16.5 C25.48736297 14.97306437 22.47731206 13.44119616 19.46875 11.90625 C18.78010864 11.55929077 18.09146729 11.21233154 17.38195801 10.8548584 C14.01766615 9.13786181 10.95795983 7.34826058 8 5 C6.14659606 4.10864756 6.14659606 4.10864756 4.3125 3.4375 C1 2 1 2 0 0 Z " fill="#FEFD4D" transform="translate(163,245)"/>
<path d="M0 0 C53.79 0 107.58 0 163 0 C163 27.72 163 55.44 163 84 C164.65 82.68 166.3 81.36 168 80 C168.66 80.33 169.32 80.66 170 81 C168.1875 83 168.1875 83 166 85 C165.01 85 164.02 85 163 85 C163 110.74 163 136.48 163 163 C109.21 163 55.42 163 0 163 C0 141.22 0 119.44 0 97 C-0.66 96.67 -1.32 96.34 -2 96 C-1.34 96 -0.68 96 0 96 C0 64.32 0 32.64 0 0 Z M1 1 C1 54.13 1 107.26 1 162 C54.13 162 107.26 162 162 162 C162 137.25 162 112.5 162 87 C156.52412346 87.89784912 156.52412346 87.89784912 151.75 89.875 C141.65487586 94.5093889 132.9749554 95.40054976 121.875 95.1875 C117.29625 95.125625 112.7175 95.06375 108 95 C108 112.16 108 129.32 108 147 C97.44 147 86.88 147 76 147 C76.17402344 139.61173828 76.17402344 139.61173828 76.3515625 132.07421875 C76.40272297 128.93411127 76.45086213 125.79452506 76.48828125 122.65429688 C76.54782899 117.68078543 76.61788361 112.70913266 76.75439453 107.73706055 C76.8638917 103.72329867 76.92301052 99.71153138 76.94877243 95.69639015 C76.96710366 94.17285593 77.00290272 92.64941835 77.05730057 91.12674522 C77.30594889 83.87123478 77.33071406 77.76973316 72.35390282 72.10237598 C71.00164053 70.72707365 69.57837264 69.42268492 68.15316772 68.12312317 C67.44262238 67.42249252 66.73207703 66.72186188 66 66 C66 65.01 66 64.02 66 63 C66.44988281 63.60585938 66.89976562 64.21171875 67.36328125 64.8359375 C74.95456622 74.72438485 84.98200446 86.82028024 98.0625 88.8125 C99.5165625 88.9053125 99.5165625 88.9053125 101 89 C101 89.66 101 90.32 101 91 C121.32276279 95.48649691 137.94323061 94.5004741 157 86 C157.99 85.34 158.98 84.68 160 84 C160.28644682 81.36742247 160.37843744 78.97088158 160.34057617 76.33740234 C160.34101425 75.54707108 160.34145233 74.75673981 160.34190369 73.94245911 C160.33980932 71.3233695 160.31644826 68.70491563 160.29296875 66.0859375 C160.28737509 64.2727595 160.28310391 62.45957697 160.28010559 60.64639282 C160.26863869 55.86885102 160.23915575 51.09158186 160.20599365 46.31414795 C160.17533243 41.44124032 160.16160871 36.56828874 160.14648438 31.6953125 C160.11428773 22.1300884 160.0630692 12.56506685 160 3 C158.38720909 3.00333092 158.38720909 3.00333092 156.74183655 3.00672913 C146.63215799 3.0269599 136.52248352 3.04197183 126.41278934 3.05181217 C121.21471885 3.05704116 116.01666464 3.0641391 110.81860352 3.07543945 C105.80657732 3.08626776 100.79456682 3.09227671 95.78252983 3.09487724 C93.86587718 3.09673159 91.94922543 3.1003524 90.03257942 3.10573006 C87.35771928 3.11293975 84.68292486 3.11399097 82.00805664 3.11352539 C81.2074884 3.11712067 80.40692017 3.12071594 79.58209229 3.12442017 C74.11405216 3.11405216 74.11405216 3.11405216 73 2 C102.04 2 131.08 2 161 2 C161 29.39 161 56.78 161 85 C161.33 85 161.66 85 162 85 C162 57.28 162 29.56 162 1 C108.87 1 55.74 1 1 1 Z " fill="#9350D9" transform="translate(89,242)"/>
<path d="M0 0 C53.79 0 107.58 0 163 0 C163 27.72 163 55.44 163 84 C164.65 82.68 166.3 81.36 168 80 C168.66 80.33 169.32 80.66 170 81 C168.1875 83 168.1875 83 166 85 C165.01 85 164.02 85 163 85 C163 110.74 163 136.48 163 163 C109.21 163 55.42 163 0 163 C0 141.22 0 119.44 0 97 C-0.66 96.67 -1.32 96.34 -2 96 C-1.34 96 -0.68 96 0 96 C0 64.32 0 32.64 0 0 Z M1 1 C1 54.13 1 107.26 1 162 C54.13 162 107.26 162 162 162 C162 137.25 162 112.5 162 87 C156.52412346 87.89784912 156.52412346 87.89784912 151.75 89.875 C141.6506763 94.5113168 132.98749474 95.40247386 121.875 95.1875 C120.52345254 95.17241432 119.17188865 95.15873283 117.8203125 95.14648438 C114.54644629 95.11140724 111.2734432 95.06225097 108 95 C108.33 94.34 108.66 93.68 109 93 C110.010625 93.165 111.02125 93.33 112.0625 93.5 C128.63706559 95.53134108 145.84829675 93.43446883 160 84 C160.28644682 81.36742247 160.37843744 78.97088158 160.34057617 76.33740234 C160.34101425 75.54707108 160.34145233 74.75673981 160.34190369 73.94245911 C160.33980932 71.3233695 160.31644826 68.70491563 160.29296875 66.0859375 C160.28737509 64.2727595 160.28310391 62.45957697 160.28010559 60.64639282 C160.26863869 55.86885102 160.23915575 51.09158186 160.20599365 46.31414795 C160.17533243 41.44124032 160.16160871 36.56828874 160.14648438 31.6953125 C160.11428773 22.1300884 160.0630692 12.56506685 160 3 C158.38720909 3.00333092 158.38720909 3.00333092 156.74183655 3.00672913 C146.63215799 3.0269599 136.52248352 3.04197183 126.41278934 3.05181217 C121.21471885 3.05704116 116.01666464 3.0641391 110.81860352 3.07543945 C105.80657732 3.08626776 100.79456682 3.09227671 95.78252983 3.09487724 C93.86587718 3.09673159 91.94922543 3.1003524 90.03257942 3.10573006 C87.35771928 3.11293975 84.68292486 3.11399097 82.00805664 3.11352539 C81.2074884 3.11712067 80.40692017 3.12071594 79.58209229 3.12442017 C74.11405216 3.11405216 74.11405216 3.11405216 73 2 C102.04 2 131.08 2 161 2 C161 29.39 161 56.78 161 85 C161.33 85 161.66 85 162 85 C162 57.28 162 29.56 162 1 C108.87 1 55.74 1 1 1 Z " fill="#CEB091" transform="translate(89,242)"/>
<path d="M0 0 C2.72299642 1.81162619 4.53346438 3.06692876 6 6 C6.15441209 8.10374996 6.24992639 10.21195119 6.31640625 12.3203125 C6.35830078 13.57714844 6.40019531 14.83398438 6.44335938 16.12890625 C6.48267578 17.44761719 6.52199219 18.76632812 6.5625 20.125 C6.60569512 21.46485751 6.64930973 22.80470156 6.69335938 24.14453125 C6.79970981 27.42957815 6.90173808 30.71470281 7 34 C8.485 34.495 8.485 34.495 10 35 C10 35.66 10 36.32 10 37 C7.6875 37.3125 7.6875 37.3125 5 37 C3.1875 34.5 3.1875 34.5 2 32 C1.05125 32.804375 0.1025 33.60875 -0.875 34.4375 C-4.87374045 37.82773647 -7.47810495 38.28570879 -12.67578125 38.21875 C-16.00486735 37.90542425 -18.25386408 36.8754099 -21 35 C-23.38599419 32.07173441 -23.48584879 28.68520637 -23.375 24.96484375 C-22.70279554 21.44277244 -20.81918371 20.03940949 -18 18 C-11.66289684 15.35954035 -4.78885152 15.38793437 2 15 C2.10836453 13.56416999 2.18576167 12.1259798 2.25 10.6875 C2.29640625 9.88699219 2.3428125 9.08648437 2.390625 8.26171875 C2.19622847 5.87167398 2.19622847 5.87167398 0.29296875 4.234375 C-3.68000662 2.09560121 -7.61362723 2.36120785 -12 3 C-15.49642065 4.92659913 -16.68231206 5.92474851 -17.8125 9.75 C-17.874375 10.4925 -17.93625 11.235 -18 12 C-18.99 12 -19.98 12 -21 12 C-20.83469543 7.78473353 -20.35493247 5.4766236 -17.8125 2.0625 C-12.88087831 -1.57006036 -5.75588838 -0.97614481 0 0 Z " fill="#EB7FEE" transform="translate(428,286)"/>
<path d="M0 0 C4.87995132 2.26569169 7.63239735 5.17373306 10 10 C10 12.97 10 15.94 10 19 C0.43 19 -9.14 19 -19 19 C-17.50690455 27.2855103 -17.50690455 27.2855103 -13 33 C-9.04139683 34.97930159 -4.30430763 34.5598088 0 34 C3.4268958 31.48228063 5.39942998 28.92867187 7 25 C7.99 25.33 8.98 25.66 10 26 C6.30651914 34.68690191 6.30651914 34.68690191 1 37 C-4.02858199 38.676194 -8.34030411 38.60642735 -13.25 36.8125 C-17.40492846 34.07402443 -20.14395963 30.60044194 -22 26 C-22.82433492 18.13047708 -23.09337081 11.29969547 -18 5 C-12.90888915 -0.98205525 -7.59433838 -1.11620083 0 0 Z " fill="#EC80EE" transform="translate(378,286)"/>
<path d="M0 0 C13.53 0 27.06 0 41 0 C46.63973064 14.66329966 46.63973064 14.66329966 48.375 19.5625 C48.77847656 20.70074219 49.18195313 21.83898437 49.59765625 23.01171875 C52.41124849 31.00331887 55.20814103 39.00078553 58 47 C58.47179687 45.65808594 58.47179687 45.65808594 58.953125 44.2890625 C59.38109375 43.07992187 59.8090625 41.87078125 60.25 40.625 C60.66765625 39.44164062 61.0853125 38.25828125 61.515625 37.0390625 C62.58231768 34.07780179 63.73545822 31.16134732 64.921875 28.24609375 C66.3899854 24.61116884 67.73237292 20.95567565 69 17.24609375 C69.495 15.81233398 69.495 15.81233398 70 14.34960938 C70.67747584 12.37672564 71.34382174 10.39999103 72 8.41992188 C72.33 7.47568359 72.66 6.53144531 73 5.55859375 C73.28875 4.70579834 73.5775 3.85300293 73.875 2.97436523 C75 1 75 1 77.125 0.21508789 C77.74375 0.14410889 78.3625 0.07312988 79 0 C77.05677269 5.59884019 75.11079703 11.19670668 73.16015625 16.79296875 C71.86779996 20.50105026 70.58233953 24.21126943 69.30859375 27.92578125 C66.59015531 35.80855836 63.66298747 43.49573806 60 51 C58.68 51 57.36 51 56 51 C55.62488281 49.98421875 55.24976563 48.9684375 54.86328125 47.921875 C52.49603362 41.54408485 50.12321797 35.18991986 47.4375 28.9375 C43.89421849 20.56664076 40.78375053 11.91875263 39 3 C33.06 3 27.12 3 21 3 C21 18.84 21 34.68 21 51 C20.01 51 19.02 51 18 51 C18 35.16 18 19.32 18 3 C12.06 3 6.12 3 0 3 C0 2.01 0 1.02 0 0 Z " fill="#ED80EE" transform="translate(457,272)"/>
<path d="M0 0 C0.99 0 1.98 0 3 0 C3 7.59 3 15.18 3 23 C13.89 23 24.78 23 36 23 C36 15.41 36 7.82 36 0 C36.99 0 37.98 0 39 0 C39 16.83 39 33.66 39 51 C38.01 51 37.02 51 36 51 C36 42.75 36 34.5 36 26 C25.11 26 14.22 26 3 26 C3 34.25 3 42.5 3 51 C2.01 51 1.02 51 0 51 C0 34.17 0 17.34 0 0 Z " fill="#F181EE" transform="translate(310,272)"/>
<path d="M0 0 C0.34394547 5.73242442 0.38869294 10.09223781 -3 15 C-6.24354381 18.04082233 -9.2708338 18.26034733 -13.5625 18.4375 C-17.0183554 18.32572031 -18.66662466 18.19382287 -21.6875 16.4375 C-23.52035388 13.03362851 -23.54407614 10.80853299 -23 7 C-19.16335552 2.14025032 -15.36809646 1.67786731 -9.5 0.9375 C-8.46552734 0.80118164 -8.46552734 0.80118164 -7.41015625 0.66210938 C-2.30245536 0 -2.30245536 0 0 0 Z " fill="#9651DA" transform="translate(431,303)"/>
<path d="M0 0 C4.10601848 1.77305344 6.66278175 4.19119988 9 8 C9 10.31 9 12.62 9 15 C0.42 15 -8.16 15 -17 15 C-15.87237546 7.10662824 -15.87237546 7.10662824 -13.0625 4.125 C-12.53785156 3.55007813 -12.01320313 2.97515625 -11.47265625 2.3828125 C-8.15019858 -0.73694882 -4.31284166 -0.45704488 0 0 Z " fill="#9852DA" transform="translate(376,288)"/>
<path d="M0 0 C28.38 0 56.76 0 86 0 C86 26.73 86 53.46 86 81 C85.67 81 85.34 81 85 81 C85 54.6 85 28.2 85 1 C60.25 1.33 35.5 1.66 10 2 C10.33 3.32 10.66 4.64 11 6 C5.67831192 4.77191814 4.03501519 4.03501519 0 0 Z " fill="#FBF467" transform="translate(163,245)"/>
<path d="M0 0 C0.99 0 1.98 0 3 0 C3 16.83 3 33.66 3 51 C2.01 51 1.02 51 0 51 C0 34.17 0 17.34 0 0 Z " fill="#E87DEC" transform="translate(395,272)"/>
<path d="M0 0 C0 19.8 0 39.6 0 60 C-0.66 60 -1.32 60 -2 60 C-2 40.86 -2 21.72 -2 2 C-2.66 1.67 -3.32 1.34 -4 1 C-2 0 -2 0 0 0 Z " fill="#E5D379" transform="translate(106,329)"/>
<path d="M0 0 C0.55171875 0.70511719 1.1034375 1.41023438 1.671875 2.13671875 C4.10306968 5.12676187 6.64769972 7.97051417 9.25 10.8125 C9.70890625 11.31458984 10.1678125 11.81667969 10.640625 12.33398438 C11.75903945 13.55725018 12.8793242 14.77880556 14 16 C13.67 16.66 13.34 17.32 13 18 C12.87922947 20.15411574 12.82253978 22.31191961 12.79467773 24.46923828 C12.77982834 25.46454056 12.77982834 25.46454056 12.76467896 26.47994995 C12.73305084 28.67670097 12.70830146 30.87347363 12.68359375 33.0703125 C12.66302534 34.59203661 12.6420289 36.113755 12.62062073 37.63546753 C12.56538829 41.6434465 12.51598422 45.65147713 12.46777344 49.6595459 C12.41756695 53.74833787 12.36187644 57.83705468 12.30664062 61.92578125 C12.19904472 69.95045732 12.09760296 77.9751962 12 86 C11.67 86 11.34 86 11 86 C11.00967804 85.1474614 11.01935608 84.29492279 11.02932739 83.41654968 C11.11204689 75.3404454 11.14611248 67.26586399 11.12697029 59.18933392 C11.1188084 55.03788982 11.12876168 50.88821147 11.18164062 46.73706055 C11.23208549 42.72267635 11.23295176 38.71093342 11.20095444 34.69639015 C11.19723347 33.17311678 11.21070025 31.64969125 11.24249649 30.12674522 C11.38303957 22.8994032 11.31020159 16.75914955 6.38796806 11.10237598 C5.05233867 9.72966766 3.64877068 8.42405294 2.24313354 7.12312317 C0 5 0 5 -1 2 C-0.67 1.34 -0.34 0.68 0 0 Z " fill="#9F6BB6" transform="translate(154,303)"/>
<path d="M0 0 C9.57 0.66 19.14 1.32 29 2 C25.90750486 4.06166343 25.25726383 4.24982309 21.76171875 4.23046875 C20.94123047 4.22853516 20.12074219 4.22660156 19.27539062 4.22460938 C18.42138672 4.21236328 17.56738281 4.20011719 16.6875 4.1875 C15.84509766 4.18685547 15.00269531 4.18621094 14.13476562 4.18554688 C9.54525107 4.15325162 5.59923145 3.76653858 1 3 C1 20.16 1 37.32 1 55 C0.67 55 0.34 55 0 55 C0 36.85 0 18.7 0 0 Z " fill="#A372AD" transform="translate(196,334)"/>
<path d="M0 0 C12.87 0.495 12.87 0.495 26 1 C26 1.33 26 1.66 26 2 C25.43490723 2.01458252 24.86981445 2.02916504 24.28759766 2.04418945 C21.73269981 2.11856058 19.17912502 2.21525242 16.625 2.3125 C15.73554688 2.33505859 14.84609375 2.35761719 13.9296875 2.38085938 C13.07890625 2.41630859 12.228125 2.45175781 11.3515625 2.48828125 C10.17327881 2.52755737 10.17327881 2.52755737 8.97119141 2.56762695 C6.59959844 2.84889597 6.59959844 2.84889597 5 6 C3.68 5.67 2.36 5.34 1 5 C1 20.51 1 36.02 1 52 C0.67 52 0.34 52 0 52 C0 34.84 0 17.68 0 0 Z " fill="#F2E575" transform="translate(197,337)"/>
<path d="M0 0 C0.495 0.99 0.495 0.99 1 2 C-2.3 2 -5.6 2 -9 2 C-9 1.34 -9 0.68 -9 0 C-15.53686384 -0.98831156 -21.89577115 -1.11883529 -28.5 -1.0625 C-30.01980469 -1.05573242 -30.01980469 -1.05573242 -31.5703125 -1.04882812 C-34.04693827 -1.03714593 -36.52343657 -1.02076582 -39 -1 C-39 -1.33 -39 -1.66 -39 -2 C-27.03006561 -5.03532079 -11.59576994 -4.0188837 0 0 Z " fill="#D9C088" transform="translate(237,198)"/>
<path d="M0 0 C8.25 0 16.5 0 25 0 C25 0.33 25 0.66 25 1 C24.43490723 1.01458252 23.86981445 1.02916504 23.28759766 1.04418945 C20.73269981 1.11856058 18.17912502 1.21525242 15.625 1.3125 C14.73554688 1.33505859 13.84609375 1.35761719 12.9296875 1.38085938 C12.07890625 1.41630859 11.228125 1.45175781 10.3515625 1.48828125 C9.17327881 1.52755737 9.17327881 1.52755737 7.97119141 1.56762695 C5.59959844 1.84889597 5.59959844 1.84889597 4 5 C2.68 4.67 1.36 4.34 0 4 C0 2.68 0 1.36 0 0 Z " fill="#F7ED68" transform="translate(198,338)"/>
<path d="M0 0 C0.495 0.639375 0.99 1.27875 1.5 1.9375 C4.87457208 6.0713508 8.43596883 10.02939246 12 14 C11.34 14.66 10.68 15.32 10 16 C8.34827245 14.23436021 6.70361955 12.46295402 5.0625 10.6875 C4.59392578 10.18798828 4.12535156 9.68847656 3.64257812 9.17382812 C1.44302897 6.78438984 0.03973187 5.11919562 -1 2 C-0.67 1.34 -0.34 0.68 0 0 Z " fill="#A779A6" transform="translate(154,303)"/>
<path d="M0 0 C0.66 0.33 1.32 0.66 2 1 C-1.02952741 4.40913084 -3.85651142 6.08736714 -8.0625 7.8125 C-9.10535156 8.25207031 -10.14820313 8.69164062 -11.22265625 9.14453125 C-14 10 -14 10 -17 9 C-15.71186658 8.16121545 -14.41936744 7.32913217 -13.125 6.5 C-12.40570313 6.0359375 -11.68640625 5.571875 -10.9453125 5.09375 C-9 4 -9 4 -7 4 C-6.34 3.01 -5.68 2.02 -5 1 C-5 1.99 -5 2.98 -5 4 C-3.35 2.68 -1.7 1.36 0 0 Z " fill="#AA7DA6" transform="translate(257,322)"/>
<path d="M0 0 C1.85776765 3.13498292 2.20140476 5.37471432 2 9 C1.34 8.01 0.68 7.02 0 6 C-0.78375 6.845625 -1.5675 7.69125 -2.375 8.5625 C-4.60230246 10.46855691 -5.65579213 10.98565801 -8.625 11.109375 C-11.11407237 10.84066832 -13.5453925 10.4899513 -16 10 C-16 9.67 -16 9.34 -16 9 C-15.40832031 8.96261719 -14.81664062 8.92523438 -14.20703125 8.88671875 C-9.48569769 8.49391612 -5.74017876 8.17348501 -2 5 C-0.65310085 2.42900598 -0.65310085 2.42900598 0 0 Z " fill="#E27AEC" transform="translate(430,312)"/>
<path d="M0 0 C0.99 0.66 1.98 1.32 3 2 C1.25 7.75 1.25 7.75 -1 10 C-2.15837626 5.94568308 -1.83691257 3.78187881 0 0 Z " fill="#E27AEB" transform="translate(518,311)"/>
<path d="M0 0 C1.4800841 0.11362262 2.95910074 0.24122908 4.4375 0.375 C5.26121094 0.44460937 6.08492187 0.51421875 6.93359375 0.5859375 C7.95646484 0.79089844 7.95646484 0.79089844 9 1 C9.33 1.66 9.66 2.32 10 3 C6.7 3 3.4 3 0 3 C0 2.01 0 1.02 0 0 Z " fill="#E6D576" transform="translate(228,197)"/>
<path d="M0 0 C0 0.66 0 1.32 0 2 C-2.64738916 3.4606285 -3.89448334 4 -7 4 C-7.66 5.32 -8.32 6.64 -9 8 C-9.33 6.68 -9.66 5.36 -10 4 C-8.71086513 3.32845067 -7.41859796 2.66291141 -6.125 2 C-5.40570313 1.62875 -4.68640625 1.2575 -3.9453125 0.875 C-2 0 -2 0 0 0 Z " fill="#E7D679" transform="translate(165,298)"/>
<path d="M0 0 C0 0.66 0 1.32 0 2 C-2.30276574 4.21747812 -3.52480092 4.96760006 -6.75 5.1875 C-7.86375 5.0946875 -7.86375 5.0946875 -9 5 C-6.45523312 2.20075644 -3.92372883 0 0 0 Z " fill="#AE80AC" transform="translate(79,343)"/>
<path d="M0 0 C1 2 1 2 0.3125 4.5 C-1.15567038 7.29651501 -2.09303901 7.93411431 -5 9 C-3.7508258 5.54074837 -2.32472205 2.85306797 0 0 Z " fill="#E9D975" transform="translate(155,224)"/>
<path d="M0 0 C0 2.97 0 5.94 0 9 C-0.33 9 -0.66 9 -1 9 C-1.33 7.02 -1.66 5.04 -2 3 C-4.97 2.505 -4.97 2.505 -8 2 C-8 1.67 -8 1.34 -8 1 C-2.25 0 -2.25 0 0 0 Z " fill="#AB58D8" transform="translate(431,303)"/>
<path d="M0 0 C-0.8125 1.9375 -0.8125 1.9375 -2 4 C-2.99 4.33 -3.98 4.66 -5 5 C-5.73323796 7.01508358 -5.73323796 7.01508358 -6 9 C-6.25 6.75 -6.25 6.75 -6 4 C-2.75675676 0 -2.75675676 0 0 0 Z " fill="#A455D8" transform="translate(416,289)"/>
<path d="M0 0 C1.98 0 3.96 0 6 0 C6.33 1.65 6.66 3.3 7 5 C3.34683329 3.75023244 2.21934164 3.32901247 0 0 Z " fill="#FAF55C" transform="translate(167,246)"/>
</svg>
