<?xml version="1.0" encoding="UTF-8"?>
<svg version="1.1" xmlns="http://www.w3.org/2000/svg" width="800" hight="800">
<path d="M0 0 C22.11 0 44.22 0 67 0 C67 58.74 67 117.48 67 178 C8.26 178 -50.48 178 -111 178 C-111 155.89 -111 133.78 -111 111 C-56.055 110.505 -56.055 110.505 0 110 C0 73.7 0 37.4 0 0 Z " fill="#000000" transform="translate(577,466)"/>
<path d="M0 0 C22.11 0 44.22 0 67 0 C67 36.3 67 72.6 67 110 C103.63 110.33 140.26 110.66 178 111 C178 133.11 178 155.22 178 178 C119.26 178 60.52 178 0 178 C0 119.26 0 60.52 0 0 Z " fill="#000000" transform="translate(156,466)"/>
<path d="M0 0 C58.74 0 117.48 0 178 0 C178 58.74 178 117.48 178 178 C155.89 178 133.78 178 111 178 C111 141.7 111 105.4 111 68 C74.37 67.67 37.74 67.34 0 67 C0 44.89 0 22.78 0 0 Z " fill="#000000" transform="translate(466,156)"/>
<path d="M0 0 C58.74 0 117.48 0 178 0 C178 22.11 178 44.22 178 67 C123.055 67.495 123.055 67.495 67 68 C67 104.3 67 140.6 67 178 C44.89 178 22.78 178 0 178 C0 119.26 0 60.52 0 0 Z " fill="#000000" transform="translate(156,156)"/>
</svg>
