<svg xmlns="http://www.w3.org/2000/svg" style="display:none;">
<symbol id="rewind-10" viewBox="0 0 240 240">
        <path d="M113.2,131.078a21.589,21.589,0,0,0-17.7-10.6,21.589,21.589,0,0,0-17.7,10.6,44.769,44.769,0,0,0,0,46.3,21.589,21.589,0,0,0,17.7,10.6,21.589,21.589,0,0,0,17.7-10.6,44.769,44.769,0,0,0,0-46.3Zm-17.7,47.2c-7.8,0-14.4-11-14.4-24.1s6.6-24.1,14.4-24.1,14.4,11,14.4,24.1S103.4,178.278,95.5,178.278Zm-43.4,9.7v-51l-4.8,4.8-6.8-6.8,13-13a4.8,4.8,0,0,1,8.2,3.4v62.7l-9.6-.1Zm162-130.2v125.3a4.867,4.867,0,0,1-4.8,4.8H146.6v-19.3h48.2v-96.4H79.1v19.3c0,5.3-3.6,7.2-8,4.3l-41.8-27.9a6.013,6.013,0,0,1-2.7-8,5.887,5.887,0,0,1,2.7-2.7l41.8-27.9c4.4-2.9,8-1,8,4.3v19.3H209.2A4.974,4.974,0,0,1,214.1,57.778Z"/>
    </symbol>
    <symbol id="skip-10" viewBox="0 0 240 240">
        <g transform="matrix(0.2624566853046417, 0, 0, 0.2624566853046417, -73.62043762207031, -18.99883460998535)">
            <g transform="matrix(4.083333079020182, 0, 0, 4.083333079020182, 210.00003504725373, 0)">
                <path d="M 113.2 131.078 C 109.47928095074741 124.77174293694137 102.81578521882174 120.78117490152928 95.5 120.47800000000001 C 88.18421478117826 120.78117490152928 81.52071904925258 124.77174293694137 77.8 131.078 C 69.199914764706 145.31325341712 69.199914764706 163.14274658288002 77.8 177.378 C 81.52071904925259 183.68425706305862 88.18421478117826 187.6748250984707 95.5 187.97799999999998 C 102.81578521882174 187.6748250984707 109.47928095074742 183.68425706305862 113.2 177.378 C 121.800085235294 163.14274658288002 121.800085235294 145.31325341711994 113.2 131.07799999999997 L 113.2 131.078 Z M 95.5 178.27800000000002 C 87.7 178.27800000000002 81.1 167.27800000000002 81.1 154.17800000000003 C 81.1 141.07800000000003 87.69999999999999 130.07800000000003 95.5 130.07800000000003 C 103.30000000000001 130.07800000000003 109.9 141.07800000000003 109.9 154.17800000000003 C 109.9 167.27800000000002 103.4 178.278 95.5 178.278 L 95.5 178.27800000000002 Z M 52.1 187.978 L 52.1 136.978 L 47.300000000000004 141.77800000000002 L 40.50000000000001 134.978 L 53.50000000000001 121.97800000000001 C 56.10823781996381 119.36066761609388 60.571731877202076 120.54833513864943 61.53428930183057 124.1158015418025 C 61.64532089726684 124.52731100219678 61.70104777614503 124.95177593528257 61.7 125.37800000000001 L 61.7 188.07800000000003 L 52.1 187.97800000000004 L 52.1 187.978 Z" transform="matrix(1, 0, 0, 1, 79.95420633083285, 0)"/>
                <path d="M 84.4199447631836 46.86417770385742"/>
            </g>
            <g transform="matrix(4.083333333333333, 0, 0, 4.083333333333333, 210.0000045296752, 0.000004529675209141715)">
                <path d="M 214.1 57.77800000000002 L 214.1 183.07800000000003 C 214.06395684534948 185.7138928601036 211.935892859576 187.84195680676768 209.29999999999998 187.87800000000004 L 146.6 187.87800000000004 L 146.6 168.57800000000003 L 194.8 168.57800000000003 L 194.8 72.17800000000003 L 79.1 72.17800000000003 L 79.1 91.47800000000002 C 79.1 96.77800000000002 75.5 98.67800000000003 71.1 95.77800000000002 L 29.299999999999997 67.87800000000001 C 26.364262179140326 66.39791334001293 25.161566165645404 62.83436959429663 26.599999999999998 59.878000000000014 C 27.17502111981831 58.70301508726242 28.125015087701698 57.75302112071597 29.299999999999997 57.17800000000001 L 71.1 29.278000000000013 C 75.5 26.378000000000014 79.1 28.278000000000013 79.1 33.57800000000001 L 79.1 52.878000000000014 L 209.2 52.878000000000014 C 211.88956897019057 52.917724641011525 214.0602752928723 55.08843103078595 214.1 57.778 L 214.1 57.77800000000002 Z" transform="matrix(-0.9999999999999999, 0, 0, 0.9999999999999999, 240.09397679496814, 0)"/>
            </g>
        </g>
    </symbol>
    <symbol id="play" viewBox="0 0 240 240">
        <path d="M62.8,199.5c-1,0.8-2.4,0.6-3.3-0.4c-0.4-0.5-0.6-1.1-0.5-1.8V42.6c-0.2-1.3,0.7-2.4,1.9-2.6c0.7-0.1,1.3,0.1,1.9,0.4l154.7,77.7c2.1,1.1,2.1,2.8,0,3.8L62.8,199.5z"/>
    </symbol>
    <symbol id="pause" viewBox="0 0 240 240">
        <path d="M100,194.9c0.2,2.6-1.8,4.8-4.4,5c-0.2,0-0.4,0-0.6,0H65c-2.6,0.2-4.8-1.8-5-4.4c0-0.2,0-0.4,0-0.6V45c-0.2-2.6,1.8-4.8,4.4-5c0.2,0,0.4,0,0.6,0h30c2.6-0.2,4.8,1.8,5,4.4c0,0.2,0,0.4,0,0.6V194.9z M180,45.1c0.2-2.6-1.8-4.8-4.4-5c-0.2,0-0.4,0-0.6,0h-30c-2.6-0.2-4.8,1.8-5,4.4c0,0.2,0,0.4,0,0.6V195c-0.2,2.6,1.8,4.8,4.4,5c0.2,0,0.4,0,0.6,0h30c2.6-0.2,4.8-1.8,5-4.4c0-0.2,0-0.4,0-0.6V45.1z"/>
    </symbol>
    <symbol id="mute" viewBox="0 0 240 240"><path d="M116.4,42.8v154.5c0,2.8-1.7,3.6-3.8,1.7l-54.1-48.1H28.9c-2.8,0-5.2-2.3-5.2-5.2V94.2c0-2.8,2.3-5.2,5.2-5.2h29.6l54.1-48.1C114.6,39.1,116.4,39.9,116.4,42.8z M212.3,96.4l-14.6-14.6l-23.6,23.6l-23.6-23.6l-14.6,14.6l23.6,23.6l-23.6,23.6l14.6,14.6l23.6-23.6l23.6,23.6l14.6-14.6L188.7,120L212.3,96.4z"/>
    </symbol>
    <symbol id="volume-on" viewBox="0 0 240 240"><path d="M116.5,42.8v154.4c0,2.8-1.7,3.6-3.8,1.7l-54.1-48H29c-2.8,0-5.2-2.3-5.2-5.2V94.3c0-2.8,2.3-5.2,5.2-5.2h29.6l54.1-48C114.8,39.2,116.5,39.9,116.5,42.8z"/><path d="M136.2,160v-20c11.1,0,20-8.9,20-20s-8.9-20-20-20V80c22.1,0,40,17.9,40,40S158.3,160,136.2,160z"/><path d="M216.2,120c0-44.2-35.8-80-80-80v20c33.1,0,60,26.9,60,60s-26.9,60-60,60v20C180.4,199.9,216.1,164.1,216.2,120z"/>
     </symbol>
     <symbol id="settings" viewBox="0 0 240 240"><path d="M204,145l-25-14c0.8-3.6,1.2-7.3,1-11c0.2-3.7-0.2-7.4-1-11l25-14c2.2-1.6,3.1-4.5,2-7l-16-26c-1.2-2.1-3.8-2.9-6-2l-25,14c-6-4.2-12.3-7.9-19-11V35c0.2-2.6-1.8-4.8-4.4-5c-0.2,0-0.4,0-0.6,0h-30c-2.6-0.2-4.8,1.8-5,4.4c0,0.2,0,0.4,0,0.6v28c-6.7,3.1-13,6.7-19,11L56,60c-2.2-0.9-4.8-0.1-6,2L35,88c-1.6,2.2-1.3,5.3,0.9,6.9c0,0,0.1,0,0.1,0.1l25,14c-0.8,3.6-1.2,7.3-1,11c-0.2,3.7,0.2,7.4,1,11l-25,14c-2.2,1.6-3.1,4.5-2,7l16,26c1.2,2.1,3.8,2.9,6,2l25-14c5.7,4.6,12.2,8.3,19,11v28c-0.2,2.6,1.8,4.8,4.4,5c0.2,0,0.4,0,0.6,0h30c2.6,0.2,4.8-1.8,5-4.4c0-0.2,0-0.4,0-0.6v-28c7-2.3,13.5-6,19-11l25,14c2.5,1.3,5.6,0.4,7-2l15-26C206.7,149.4,206,146.7,204,145z M120,149.9c-16.5,0-30-13.4-30-30s13.4-30,30-30s30,13.4,30,30c0.3,16.3-12.6,29.7-28.9,30C120.7,149.9,120.4,149.9,120,149.9z"/>
      </symbol>
      <symbol id="quality" viewBox="0 0 240 240"><path d="M55,200H35c-3,0-5-2-5-4c0,0,0,0,0-1v-30c0-3,2-5,4-5c0,0,0,0,1,0h20c3,0,5,2,5,4c0,0,0,0,0,1v30C60,198,58,200,55,200L55,200z M110,195v-70c0-3-2-5-4-5c0,0,0,0-1,0H85c-3,0-5,2-5,4c0,0,0,0,0,1v70c0,3,2,5,4,5c0,0,0,0,1,0h20C108,200,110,198,110,195L110,195z M160,195V85c0-3-2-5-4-5c0,0,0,0-1,0h-20c-3,0-5,2-5,4c0,0,0,0,0,1v110c0,3,2,5,4,5c0,0,0,0,1,0h20C158,200,160,198,160,195L160,195z M210,195V45c0-3-2-5-4-5c0,0,0,0-1,0h-20c-3,0-5,2-5,4c0,0,0,0,0,1v150c0,3,2,5,4,5c0,0,0,0,1,0h20C208,200,210,198,210,195L210,195z"/>
      </symbol>
      <symbol id="captions-off" viewBox="0 0 240 240"><path d="M99.4,97.8c-2.4-0.2-4.8,0.7-6.6,2.3c-1.7,1.7-2.5,4.1-2.4,6.5v25.6c0,9.6,11.6,11.4,17.7,5.5c0.7-0.7,1.5-1.5,2.4-2.3l6.6,7.8c-2.2,2.4-5,4.4-8,5.8c-8,3.5-17.3,2.4-24.3-2.9c-3.9-3.6-5.9-8.7-5.5-14v-25.6c0-2.7,0.5-5.3,1.5-7.8c0.9-2.2,2.4-4.3,4.2-5.9c5.7-4.5,13.2-6.2,20.3-4.6c3.3,0.5,6.3,2,8.7,4.3c1.3,1.3,2.5,2.6,3.5,4.2l-7.1,6.9C107.9,100,103.8,97.8,99.4,97.8z M144.1,97.8c-2.4-0.2-4.8,0.7-6.6,2.3c-1.7,1.7-2.5,4.1-2.4,6.5v25.6c0,9.6,11.6,11.4,17.7,5.5c0.7-0.7,1.5-1.5,2.4-2.3l6.6,7.8c-2.2,2.4-5,4.4-8,5.8c-8,3.5-17.3,2.4-24.3-2.9c-3.9-3.6-5.9-8.7-5.5-14v-25.6c0-2.7,0.5-5.3,1.5-7.8c0.9-2.2,2.4-4.3,4.2-5.9c5.7-4.5,13.2-6.2,20.3-4.6c3.3,0.5,6.3,2,8.7,4.3c1.3,1.3,2.5,2.6,3.5,4.2l-7.1,6.9C152.6,100,148.5,97.8,144.1,97.8L144.1,97.8z M200,60v120H40V60H200 M215,40H25c-2.7,0-5,2.2-5,5v150c0,2.7,2.2,5,5,5h190c2.7,0,5-2.2,5-5V45C220,42.2,217.8,40,215,40z"/>
       </symbol>
       <symbol id="captions-on" viewBox="0 0 240 240"><path d="M215,40H25c-2.7,0-5,2.2-5,5v150c0,2.7,2.2,5,5,5h190c2.7,0,5-2.2,5-5V45C220,42.2,217.8,40,215,40z M108.1,137.7c0.7-0.7,1.5-1.5,2.4-2.3l6.6,7.8c-2.2,2.4-5,4.4-8,5.8c-8,3.5-17.3,2.4-24.3-2.9c-3.9-3.6-5.9-8.7-5.5-14v-25.6c0-2.7,0.5-5.3,1.5-7.8c0.9-2.2,2.4-4.3,4.2-5.9c5.7-4.5,13.2-6.2,20.3-4.6c3.3,0.5,6.3,2,8.7,4.3c1.3,1.3,2.5,2.6,3.5,4.2l-7.1,6.9c-2.4-3.7-6.5-5.9-10.9-5.9c-2.4-0.2-4.8,0.7-6.6,2.3c-1.7,1.7-2.5,4.1-2.4,6.5v25.6C90.4,141.7,102,143.5,108.1,137.7z M152.9,137.7c0.7-0.7,1.5-1.5,2.4-2.3l6.6,7.8c-2.2,2.4-5,4.4-8,5.8c-8,3.5-17.3,2.4-24.3-2.9c-3.9-3.6-5.9-8.7-5.5-14v-25.6c0-2.7,0.5-5.3,1.5-7.8c0.9-2.2,2.4-4.3,4.2-5.9c5.7-4.5,13.2-6.2,20.3-4.6c3.3,0.5,6.3,2,8.7,4.3c1.3,1.3,2.5,2.6,3.5,4.2l-7.1,6.9c-2.4-3.7-6.5-5.9-10.9-5.9c-2.4-0.2-4.8,0.7-6.6,2.3c-1.7,1.7-2.5,4.1-2.4,6.5v25.6C135.2,141.7,146.8,143.5,152.9,137.7z"/>  
       </symbol>
        <symbol id="close" viewBox="0 0 240 240"><path d="M134.8,120l48.6-48.6c2-1.9,2.1-5.2,0.2-7.2c0,0-0.1-0.1-0.2-0.2l-7.4-7.4c-1.9-2-5.2-2.1-7.2-0.2c0,0-0.1,0.1-0.2,0.2L120,105.2L71.4,56.6c-1.9-2-5.2-2.1-7.2-0.2c0,0-0.1,0.1-0.2,0.2L56.6,64c-2,1.9-2.1,5.2-0.2,7.2c0,0,0.1,0.1,0.2,0.2l48.6,48.7l-48.6,48.6c-2,1.9-2.1,5.2-0.2,7.2c0,0,0.1,0.1,0.2,0.2l7.4,7.4c1.9,2,5.2,2.1,7.2,0.2c0,0,0.1-0.1,0.2-0.2l48.7-48.6l48.6,48.6c1.9,2,5.2,2.1,7.2,0.2c0,0,0.1-0.1,0.2-0.2l7.4-7.4c2-1.9,2.1-5.2,0.2-7.2c0,0-0.1-0.1-0.2-0.2L134.8,120z"/>
       </symbol>
       <symbol id="playback-error" viewBox="0 0 36 36" style="width:100%;height:100%;"><path d="M34.6 20.2L10 33.2 27.6 16l7 3.7a.4.4 0 0 1 .2.5.4.4 0 0 1-.2.2zM33.3 0L21 12.2 9 6c-.2-.3-.6 0-.6.5V25L0 33.6 2.5 36 36 2.7z"/>
      </symbol>
      <symbol id="playback" viewBox="0 0 240 240"><path d="M158.83,48.83A71.17,71.17,0,1,0,230,120,71.163,71.163,0,0,0,158.83,48.83Zm45.293,77.632H152.34V74.708h12.952v38.83h38.83ZM35.878,74.708h38.83V87.66H35.878ZM10,113.538H61.755V126.49H10Zm25.878,38.83h38.83V165.32H35.878Z"/>  
      </symbol>
      <symbol id="buffer" viewBox="0 0 240 240"><path d="M120,186.667a66.667,66.667,0,0,1,0-133.333V40a80,80,0,1,0,80,80H186.667A66.846,66.846,0,0,1,120,186.667Z"/>
      </symbol>
</svg>
