<svg xmlns="http://www.w3.org/2000/svg" style="display:none;">
<symbol id="rewind-10" viewBox="0 0 240 240">
        <path d="M113.2,131.078a21.589,21.589,0,0,0-17.7-10.6,21.589,21.589,0,0,0-17.7,10.6,44.769,44.769,0,0,0,0,46.3,21.589,21.589,0,0,0,17.7,10.6,21.589,21.589,0,0,0,17.7-10.6,44.769,44.769,0,0,0,0-46.3Zm-17.7,47.2c-7.8,0-14.4-11-14.4-24.1s6.6-24.1,14.4-24.1,14.4,11,14.4,24.1S103.4,178.278,95.5,178.278Zm-43.4,9.7v-51l-4.8,4.8-6.8-6.8,13-13a4.8,4.8,0,0,1,8.2,3.4v62.7l-9.6-.1Zm162-130.2v125.3a4.867,4.867,0,0,1-4.8,4.8H146.6v-19.3h48.2v-96.4H79.1v19.3c0,5.3-3.6,7.2-8,4.3l-41.8-27.9a6.013,6.013,0,0,1-2.7-8,5.887,5.887,0,0,1,2.7-2.7l41.8-27.9c4.4-2.9,8-1,8,4.3v19.3H209.2A4.974,4.974,0,0,1,214.1,57.778Z"/>
    </symbol>
    <symbol id="skip-10" viewBox="0 0 240 240">
        <g transform="matrix(0.2624566853046417, 0, 0, 0.2624566853046417, -73.62043762207031, -18.99883460998535)">
            <g transform="matrix(4.083333079020182, 0, 0, 4.083333079020182, 210.00003504725373, 0)">
                <path d="M 113.2 131.078 C 109.47928095074741 124.77174293694137 102.81578521882174 120.78117490152928 95.5 120.47800000000001 C 88.18421478117826 120.78117490152928 81.52071904925258 124.77174293694137 77.8 131.078 C 69.199914764706 145.31325341712 69.199914764706 163.14274658288002 77.8 177.378 C 81.52071904925259 183.68425706305862 88.18421478117826 187.6748250984707 95.5 187.97799999999998 C 102.81578521882174 187.6748250984707 109.47928095074742 183.68425706305862 113.2 177.378 C 121.800085235294 163.14274658288002 121.800085235294 145.31325341711994 113.2 131.07799999999997 L 113.2 131.078 Z M 95.5 178.27800000000002 C 87.7 178.27800000000002 81.1 167.27800000000002 81.1 154.17800000000003 C 81.1 141.07800000000003 87.69999999999999 130.07800000000003 95.5 130.07800000000003 C 103.30000000000001 130.07800000000003 109.9 141.07800000000003 109.9 154.17800000000003 C 109.9 167.27800000000002 103.4 178.278 95.5 178.278 L 95.5 178.27800000000002 Z M 52.1 187.978 L 52.1 136.978 L 47.300000000000004 141.77800000000002 L 40.50000000000001 134.978 L 53.50000000000001 121.97800000000001 C 56.10823781996381 119.36066761609388 60.571731877202076 120.54833513864943 61.53428930183057 124.1158015418025 C 61.64532089726684 124.52731100219678 61.70104777614503 124.95177593528257 61.7 125.37800000000001 L 61.7 188.07800000000003 L 52.1 187.97800000000004 L 52.1 187.978 Z" transform="matrix(1, 0, 0, 1, 79.95420633083285, 0)"/>
                <path d="M 84.4199447631836 46.86417770385742"/>
            </g>
            <g transform="matrix(4.083333333333333, 0, 0, 4.083333333333333, 210.0000045296752, 0.000004529675209141715)">
                <path d="M 214.1 57.77800000000002 L 214.1 183.07800000000003 C 214.06395684534948 185.7138928601036 211.935892859576 187.84195680676768 209.29999999999998 187.87800000000004 L 146.6 187.87800000000004 L 146.6 168.57800000000003 L 194.8 168.57800000000003 L 194.8 72.17800000000003 L 79.1 72.17800000000003 L 79.1 91.47800000000002 C 79.1 96.77800000000002 75.5 98.67800000000003 71.1 95.77800000000002 L 29.299999999999997 67.87800000000001 C 26.364262179140326 66.39791334001293 25.161566165645404 62.83436959429663 26.599999999999998 59.878000000000014 C 27.17502111981831 58.70301508726242 28.125015087701698 57.75302112071597 29.299999999999997 57.17800000000001 L 71.1 29.278000000000013 C 75.5 26.378000000000014 79.1 28.278000000000013 79.1 33.57800000000001 L 79.1 52.878000000000014 L 209.2 52.878000000000014 C 211.88956897019057 52.917724641011525 214.0602752928723 55.08843103078595 214.1 57.778 L 214.1 57.77800000000002 Z" transform="matrix(-0.9999999999999999, 0, 0, 0.9999999999999999, 240.09397679496814, 0)"/>
            </g>
        </g>
    </symbol>
    <symbol id="play" viewBox="0 0 240 240">
        <path d="M62.8,199.5c-1,0.8-2.4,0.6-3.3-0.4c-0.4-0.5-0.6-1.1-0.5-1.8V42.6c-0.2-1.3,0.7-2.4,1.9-2.6c0.7-0.1,1.3,0.1,1.9,0.4l154.7,77.7c2.1,1.1,2.1,2.8,0,3.8L62.8,199.5z"/>
    </symbol>
    <symbol id="pause" viewBox="0 0 240 240">
        <path d="M100,194.9c0.2,2.6-1.8,4.8-4.4,5c-0.2,0-0.4,0-0.6,0H65c-2.6,0.2-4.8-1.8-5-4.4c0-0.2,0-0.4,0-0.6V45c-0.2-2.6,1.8-4.8,4.4-5c0.2,0,0.4,0,0.6,0h30c2.6-0.2,4.8,1.8,5,4.4c0,0.2,0,0.4,0,0.6V194.9z M180,45.1c0.2-2.6-1.8-4.8-4.4-5c-0.2,0-0.4,0-0.6,0h-30c-2.6-0.2-4.8,1.8-5,4.4c0,0.2,0,0.4,0,0.6V195c-0.2,2.6,1.8,4.8,4.4,5c0.2,0,0.4,0,0.6,0h30c2.6-0.2,4.8-1.8,5-4.4c0-0.2,0-0.4,0-0.6V45.1z"/>
    </symbol>
    <symbol id="mute" viewBox="0 0 240 240"><path d="M116.4,42.8v154.5c0,2.8-1.7,3.6-3.8,1.7l-54.1-48.1H28.9c-2.8,0-5.2-2.3-5.2-5.2V94.2c0-2.8,2.3-5.2,5.2-5.2h29.6l54.1-48.1C114.6,39.1,116.4,39.9,116.4,42.8z M212.3,96.4l-14.6-14.6l-23.6,23.6l-23.6-23.6l-14.6,14.6l23.6,23.6l-23.6,23.6l14.6,14.6l23.6-23.6l23.6,23.6l14.6-14.6L188.7,120L212.3,96.4z"/>
    </symbol>
    <symbol id="volume-on" viewBox="0 0 240 240"><path d="M116.5,42.8v154.4c0,2.8-1.7,3.6-3.8,1.7l-54.1-48H29c-2.8,0-5.2-2.3-5.2-5.2V94.3c0-2.8,2.3-5.2,5.2-5.2h29.6l54.1-48C114.8,39.2,116.5,39.9,116.5,42.8z"/><path d="M136.2,160v-20c11.1,0,20-8.9,20-20s-8.9-20-20-20V80c22.1,0,40,17.9,40,40S158.3,160,136.2,160z"/><path d="M216.2,120c0-44.2-35.8-80-80-80v20c33.1,0,60,26.9,60,60s-26.9,60-60,60v20C180.4,199.9,216.1,164.1,216.2,120z"/>
     </symbol>
     <symbol id="settings" viewBox="0 0 240 240"><path d="M204,145l-25-14c0.8-3.6,1.2-7.3,1-11c0.2-3.7-0.2-7.4-1-11l25-14c2.2-1.6,3.1-4.5,2-7l-16-26c-1.2-2.1-3.8-2.9-6-2l-25,14c-6-4.2-12.3-7.9-19-11V35c0.2-2.6-1.8-4.8-4.4-5c-0.2,0-0.4,0-0.6,0h-30c-2.6-0.2-4.8,1.8-5,4.4c0,0.2,0,0.4,0,0.6v28c-6.7,3.1-13,6.7-19,11L56,60c-2.2-0.9-4.8-0.1-6,2L35,88c-1.6,2.2-1.3,5.3,0.9,6.9c0,0,0.1,0,0.1,0.1l25,14c-0.8,3.6-1.2,7.3-1,11c-0.2,3.7,0.2,7.4,1,11l-25,14c-2.2,1.6-3.1,4.5-2,7l16,26c1.2,2.1,3.8,2.9,6,2l25-14c5.7,4.6,12.2,8.3,19,11v28c-0.2,2.6,1.8,4.8,4.4,5c0.2,0,0.4,0,0.6,0h30c2.6,0.2,4.8-1.8,5-4.4c0-0.2,0-0.4,0-0.6v-28c7-2.3,13.5-6,19-11l25,14c2.5,1.3,5.6,0.4,7-2l15-26C206.7,149.4,206,146.7,204,145z M120,149.9c-16.5,0-30-13.4-30-30s13.4-30,30-30s30,13.4,30,30c0.3,16.3-12.6,29.7-28.9,30C120.7,149.9,120.4,149.9,120,149.9z"/>
      </symbol>
      <symbol id="quality" viewBox="0 0 240 240"><path d="M55,200H35c-3,0-5-2-5-4c0,0,0,0,0-1v-30c0-3,2-5,4-5c0,0,0,0,1,0h20c3,0,5,2,5,4c0,0,0,0,0,1v30C60,198,58,200,55,200L55,200z M110,195v-70c0-3-2-5-4-5c0,0,0,0-1,0H85c-3,0-5,2-5,4c0,0,0,0,0,1v70c0,3,2,5,4,5c0,0,0,0,1,0h20C108,200,110,198,110,195L110,195z M160,195V85c0-3-2-5-4-5c0,0,0,0-1,0h-20c-3,0-5,2-5,4c0,0,0,0,0,1v110c0,3,2,5,4,5c0,0,0,0,1,0h20C158,200,160,198,160,195L160,195z M210,195V45c0-3-2-5-4-5c0,0,0,0-1,0h-20c-3,0-5,2-5,4c0,0,0,0,0,1v150c0,3,2,5,4,5c0,0,0,0,1,0h20C208,200,210,198,210,195L210,195z"/>
      </symbol>
      <symbol id="captions-off" viewBox="0 0 240 240"><path d="M99.4,97.8c-2.4-0.2-4.8,0.7-6.6,2.3c-1.7,1.7-2.5,4.1-2.4,6.5v25.6c0,9.6,11.6,11.4,17.7,5.5c0.7-0.7,1.5-1.5,2.4-2.3l6.6,7.8c-2.2,2.4-5,4.4-8,5.8c-8,3.5-17.3,2.4-24.3-2.9c-3.9-3.6-5.9-8.7-5.5-14v-25.6c0-2.7,0.5-5.3,1.5-7.8c0.9-2.2,2.4-4.3,4.2-5.9c5.7-4.5,13.2-6.2,20.3-4.6c3.3,0.5,6.3,2,8.7,4.3c1.3,1.3,2.5,2.6,3.5,4.2l-7.1,6.9C107.9,100,103.8,97.8,99.4,97.8z M144.1,97.8c-2.4-0.2-4.8,0.7-6.6,2.3c-1.7,1.7-2.5,4.1-2.4,6.5v25.6c0,9.6,11.6,11.4,17.7,5.5c0.7-0.7,1.5-1.5,2.4-2.3l6.6,7.8c-2.2,2.4-5,4.4-8,5.8c-8,3.5-17.3,2.4-24.3-2.9c-3.9-3.6-5.9-8.7-5.5-14v-25.6c0-2.7,0.5-5.3,1.5-7.8c0.9-2.2,2.4-4.3,4.2-5.9c5.7-4.5,13.2-6.2,20.3-4.6c3.3,0.5,6.3,2,8.7,4.3c1.3,1.3,2.5,2.6,3.5,4.2l-7.1,6.9C152.6,100,148.5,97.8,144.1,97.8L144.1,97.8z M200,60v120H40V60H200 M215,40H25c-2.7,0-5,2.2-5,5v150c0,2.7,2.2,5,5,5h190c2.7,0,5-2.2,5-5V45C220,42.2,217.8,40,215,40z"/>
       </symbol>
       <symbol id="captions-on" viewBox="0 0 240 240"><path d="M215,40H25c-2.7,0-5,2.2-5,5v150c0,2.7,2.2,5,5,5h190c2.7,0,5-2.2,5-5V45C220,42.2,217.8,40,215,40z M108.1,137.7c0.7-0.7,1.5-1.5,2.4-2.3l6.6,7.8c-2.2,2.4-5,4.4-8,5.8c-8,3.5-17.3,2.4-24.3-2.9c-3.9-3.6-5.9-8.7-5.5-14v-25.6c0-2.7,0.5-5.3,1.5-7.8c0.9-2.2,2.4-4.3,4.2-5.9c5.7-4.5,13.2-6.2,20.3-4.6c3.3,0.5,6.3,2,8.7,4.3c1.3,1.3,2.5,2.6,3.5,4.2l-7.1,6.9c-2.4-3.7-6.5-5.9-10.9-5.9c-2.4-0.2-4.8,0.7-6.6,2.3c-1.7,1.7-2.5,4.1-2.4,6.5v25.6C90.4,141.7,102,143.5,108.1,137.7z M152.9,137.7c0.7-0.7,1.5-1.5,2.4-2.3l6.6,7.8c-2.2,2.4-5,4.4-8,5.8c-8,3.5-17.3,2.4-24.3-2.9c-3.9-3.6-5.9-8.7-5.5-14v-25.6c0-2.7,0.5-5.3,1.5-7.8c0.9-2.2,2.4-4.3,4.2-5.9c5.7-4.5,13.2-6.2,20.3-4.6c3.3,0.5,6.3,2,8.7,4.3c1.3,1.3,2.5,2.6,3.5,4.2l-7.1,6.9c-2.4-3.7-6.5-5.9-10.9-5.9c-2.4-0.2-4.8,0.7-6.6,2.3c-1.7,1.7-2.5,4.1-2.4,6.5v25.6C135.2,141.7,146.8,143.5,152.9,137.7z"/>  
       </symbol>
        <symbol id="close" viewBox="0 0 240 240"><path d="M134.8,120l48.6-48.6c2-1.9,2.1-5.2,0.2-7.2c0,0-0.1-0.1-0.2-0.2l-7.4-7.4c-1.9-2-5.2-2.1-7.2-0.2c0,0-0.1,0.1-0.2,0.2L120,105.2L71.4,56.6c-1.9-2-5.2-2.1-7.2-0.2c0,0-0.1,0.1-0.2,0.2L56.6,64c-2,1.9-2.1,5.2-0.2,7.2c0,0,0.1,0.1,0.2,0.2l48.6,48.7l-48.6,48.6c-2,1.9-2.1,5.2-0.2,7.2c0,0,0.1,0.1,0.2,0.2l7.4,7.4c1.9,2,5.2,2.1,7.2,0.2c0,0,0.1-0.1,0.2-0.2l48.7-48.6l48.6,48.6c1.9,2,5.2,2.1,7.2,0.2c0,0,0.1-0.1,0.2-0.2l7.4-7.4c2-1.9,2.1-5.2,0.2-7.2c0,0-0.1-0.1-0.2-0.2L134.8,120z"/>
       </symbol>
       <symbol id="playback-error" viewBox="0 0 36 36" style="width:100%;height:100%;"><path d="M34.6 20.2L10 33.2 27.6 16l7 3.7a.4.4 0 0 1 .2.5.4.4 0 0 1-.2.2zM33.3 0L21 12.2 9 6c-.2-.3-.6 0-.6.5V25L0 33.6 2.5 36 36 2.7z"/>
      </symbol>
      <symbol id="playback" viewBox="0 0 240 240"><path d="M158.83,48.83A71.17,71.17,0,1,0,230,120,71.163,71.163,0,0,0,158.83,48.83Zm45.293,77.632H152.34V74.708h12.952v38.83h38.83ZM35.878,74.708h38.83V87.66H35.878ZM10,113.538H61.755V126.49H10Zm25.878,38.83h38.83V165.32H35.878Z"/>  
      </symbol>
      <symbol id="buffer" viewBox="0 0 240 240"><path d="M120,186.667a66.667,66.667,0,0,1,0-133.333V40a80,80,0,1,0,80,80H186.667A66.846,66.846,0,0,1,120,186.667Z"/>
      </symbol>
      <symbol id="download" viewBox="0 0 32 32">
<path fill="#010101" style="fill: var(--color192, #010101)" d="M3.142 20.227c0 0.029 0 0.058 0 0.089 0.025 0.011 0.049 0.022 0.075 0.033 0.121 0.065 0.221 0.141 0.324 0.232 0 0.029 0 0.058 0 0.089 0.029 0 0.058 0 0.089 0 0.32 0.312 0.433 0.749 0.447 1.186 0.002 0.153 0.002 0.307 0.001 0.46 0 0.058 0 0.117 0 0.177 0 0.159-0 0.318-0.001 0.478-0 0.167-0 0.333-0 0.5-0 0.315-0 0.63-0.001 0.946-0 0.359-0.001 0.718-0.001 1.077-0 0.738-0.001 1.476-0.002 2.215 0.029 0 0.058 0 0.089 0 0.015 0.058 0.029 0.117 0.044 0.177 7.741 0 15.482 0 23.458 0 0.036-0.401 0.036-0.401 0.049-0.799-0-0.069-0-0.069-0-0.14-0-0.073-0-0.073-0.001-0.147-0-0.079-0-0.079-0-0.16-0-0.143-0.001-0.286-0.002-0.429-0.001-0.151-0.001-0.301-0.001-0.452-0.001-0.511-0.003-1.023-0.005-1.534-0.001-0.283-0.002-0.567-0.002-0.85-0-0.149-0.001-0.299-0.001-0.448-0.001-0.167-0.001-0.334-0.001-0.5-0-0.048-0.001-0.097-0.001-0.147 0.001-0.42 0.002-0.889 0.232-1.255 0.029 0 0.058 0 0.089 0 0.007-0.036 0.007-0.036 0.014-0.072 0.039-0.135 0.093-0.249 0.163-0.371 0.066-0.022 0.066-0.022 0.133-0.044 0.037-0.037 0.073-0.075 0.111-0.113 0.111-0.108 0.111-0.108 0.243-0.108 0-0.029 0-0.058 0-0.089 0.062-0.029 0.123-0.057 0.185-0.086 0.034-0.016 0.069-0.032 0.104-0.048 0.437-0.173 1.049-0.145 1.488 0.008 0.082 0.038 0.082 0.038 0.215 0.126 0 0.029 0 0.058 0 0.089 0.032 0.005 0.064 0.009 0.097 0.014 0.231 0.056 0.342 0.145 0.465 0.346 0.026 0.047 0.026 0.047 0.053 0.094 0.044 0.084 0.044 0.084 0.138 0.121 0.046 0.084 0.046 0.084 0.091 0.188 0.015 0.034 0.030 0.068 0.046 0.103 0.080 0.214 0.090 0.413 0.090 0.64 0 0.031 0 0.062 0 0.093 0 0.103 0 0.206-0 0.309 0 0.074 0 0.148 0 0.222 0 0.201 0 0.401-0 0.602-0 0.21 0 0.421 0 0.631 0 0.353-0 0.707-0 1.060-0 0.408-0 0.816 0 1.224 0 0.351 0 0.701 0 1.052-0 0.209-0 0.418 0 0.628 0 0.197 0 0.394-0 0.591-0 0.072-0 0.144 0 0.216 0 0.346-0.003 0.685-0.050 1.028-0.001 0.079-0.001 0.158 0.002 0.236 0.001 0.041 0.002 0.081 0.003 0.123 0.002 0.083 0.005 0.166 0.009 0.249 0.006 0.339-0.054 0.651-0.282 0.913-0.028 0.024-0.057 0.047-0.086 0.072-0.024 0.033-0.047 0.066-0.072 0.1-0.020 0.026-0.040 0.051-0.061 0.077-0.029 0-0.058 0-0.089 0-0.015 0.044-0.029 0.088-0.044 0.133-0.157 0.101-0.3 0.191-0.487 0.221 0 0.029 0 0.058 0 0.089-0.576 0.171-1.155 0.151-1.751 0.149-0.115 0-0.231 0-0.346 0.001-0.25 0-0.5 0-0.751-0-0.372-0.001-0.744-0-1.116-0-0.665 0.001-1.329 0-1.994-0-0.582-0-1.163-0.001-1.745-0.001-0.058 0-0.058 0-0.117 0-0.157 0-0.313 0-0.47 0-1.469 0-2.939-0-4.408-0.001-1.305-0.001-2.61-0.001-3.915-0.001-0.084 0-0.168 0-0.251 0-0.062 0-0.062 0-0.126 0-0.209 0-0.417 0-0.626 0-0.062 0-0.062 0-0.125 0-1.091 0-2.182-0-3.273-0-0.117-0-0.235-0-0.352-0-0.078-0-0.156-0-0.234-0-0.543-0-1.085-0-1.628-0-0.699 0-1.399-0-2.098-0.001-0.37-0-0.739-0-1.109-0-0.276 0-0.552-0-0.828-0.001-0.112-0-0.223-0-0.335 0-0.152 0-0.304-0-0.455-0.001-0.043 0-0.087 0-0.131 0.001-0.306-0.002-0.659-0.005-0.938-0.145 0-0.029 0-0.058 0-0.089-0.029-0.003-0.058-0.005-0.089-0.008-0.182-0.049-0.339-0.139-0.487-0.257 0-0.029 0-0.058 0-0.089-0.027-0.004-0.054-0.007-0.081-0.011-0.158-0.055-0.197-0.176-0.271-0.318-0.070-0.172-0.081-0.327-0.090-0.512-0.029 0-0.058 0-0.089 0-0.133-0.249-0.133-0.249-0.133-0.398 0.044 0 0.088 0 0.133 0-0.007-0.034-0.014-0.068-0.021-0.102-0.031-0.216-0.040-0.43-0.048-0.648-0.002-0.047-0.004-0.094-0.006-0.142-0.016-0.435-0.019-0.87-0.017-1.306 0.001-0.135 0.001-0.27 0.001-0.404 0.001-0.286 0.001-0.572 0.002-0.858 0.001-0.333 0.002-0.665 0.002-0.998 0-0.131 0.001-0.262 0.001-0.392 0.001-0.486-0.012-0.968-0.038-1.453-0.012-0.225-0.017-0.449-0.018-0.674-0-0.038-0-0.076-0-0.115-0-0.078-0-0.156-0-0.234-0-0.118-0.001-0.237-0.002-0.355-0.003-0.879-0.003-0.879 0.143-1.17 0.029 0 0.058 0 0.089 0 0.019-0.085 0.019-0.085 0.039-0.172 0.094-0.285 0.304-0.486 0.537-0.669 0.044 0 0.088 0 0.133 0 0-0.029 0-0.058 0-0.089 0.063-0.029 0.125-0.057 0.188-0.086 0.035-0.016 0.070-0.032 0.106-0.048 0.565-0.233 1.251-0.114 1.786 0.134z"></path>
<path fill="#010101" style="fill: var(--color192, #010101)" d="M16.199 0.266c0 0.029 0 0.058 0 0.089 0.060-0.008 0.060-0.008 0.122-0.017 0.344 0 0.712 0.24 0.958 0.469 0.199 0.22 0.383 0.442 0.425 0.742 0.029 0 0.058 0 0.089 0 0.093 0.342 0.101 0.664 0.101 1.017 0 0.062 0 0.125 0.001 0.187 0.001 0.171 0.001 0.341 0.001 0.512 0 0.184 0.001 0.369 0.001 0.553 0.001 0.319 0.001 0.638 0.002 0.957 0 0.461 0.001 0.923 0.003 1.384 0.002 0.748 0.003 1.497 0.004 2.245 0 0.045 0 0.090 0 0.136 0 0.045 0 0.090 0 0.136 0.001 0.636 0.002 1.273 0.003 1.909 0 0.045 0 0.090 0 0.136 0.001 0.746 0.003 1.492 0.005 2.239 0.001 0.46 0.002 0.921 0.002 1.381 0 0.315 0.001 0.63 0.002 0.945 0 0.182 0.001 0.364 0.001 0.546 0 0.166 0 0.333 0.001 0.499 0 0.089 0 0.178 0 0.268 0 0.078 0 0.078 0.001 0.158 0 0.045 0 0.091 0 0.138-0.006 0.1-0.006 0.1 0.050 0.146 0.017-0.017 0.035-0.035 0.053-0.053 0.174-0.174 0.349-0.349 0.523-0.523 0.031-0.033 0.062-0.066 0.094-0.1 0.083-0.077 0.083-0.077 0.216-0.122 0.015-0.044 0.029-0.088 0.044-0.133 0.029 0 0.058 0 0.089 0 0-0.029 0-0.058 0-0.089 0.044 0 0.088 0 0.133 0 0.016-0.037 0.016-0.037 0.033-0.075 0.084-0.155 0.161-0.298 0.332-0.36 0.038-0.004 0.038-0.004 0.077-0.008 0-0.029 0-0.058 0-0.089 0.029 0 0.058 0 0.089 0 0.003-0.025 0.005-0.049 0.008-0.075 0.071-0.201 0.256-0.323 0.415-0.456 0.127-0.108 0.227-0.222 0.329-0.354 0.12-0.127 0.245-0.242 0.379-0.354 0.127-0.108 0.227-0.222 0.329-0.354 0.114-0.12 0.229-0.227 0.357-0.332 0.122-0.104 0.21-0.206 0.307-0.332 0.145-0.153 0.3-0.29 0.462-0.424 0.080-0.068 0.080-0.068 0.157-0.196 0.305-0.192 0.305-0.192 0.487-0.221 0-0.044 0-0.088 0-0.133 0.29-0.128 0.57-0.141 0.882-0.141 0.034-0.001 0.068-0.001 0.104-0.002 0.3-0.001 0.553 0.070 0.829 0.187 0 0.029 0 0.058 0 0.089 0.039 0.011 0.078 0.022 0.119 0.033 0.273 0.103 0.466 0.307 0.633 0.542 0.061 0.152 0.061 0.152 0.089 0.266 0.029 0 0.058 0 0.089 0 0.22 0.533 0.195 1.145 0 1.682-0.029 0-0.058 0-0.089 0-0.010 0.039-0.020 0.079-0.030 0.119-0.067 0.17-0.146 0.244-0.279 0.368-0.045 0.051-0.089 0.103-0.133 0.155-0.142 0.168-0.287 0.325-0.462 0.459-0.12 0.1-0.214 0.207-0.314 0.327-0.121 0.142-0.249 0.269-0.397 0.384-0.129 0.107-0.226 0.227-0.332 0.357-0.11 0.115-0.217 0.218-0.343 0.315-0.111 0.077-0.111 0.077-0.144 0.216-0.076 0.054-0.152 0.108-0.229 0.16-0.122 0.092-0.208 0.208-0.303 0.327-0.113 0.119-0.227 0.226-0.354 0.329-0.136 0.116-0.241 0.24-0.354 0.379-0.106 0.112-0.21 0.213-0.332 0.307-0.129 0.107-0.226 0.227-0.332 0.357-0.114 0.12-0.229 0.227-0.357 0.332-0.122 0.104-0.21 0.206-0.307 0.332-0.113 0.119-0.227 0.226-0.354 0.329-0.136 0.116-0.241 0.24-0.354 0.379-0.114 0.12-0.229 0.227-0.357 0.332-0.122 0.104-0.21 0.206-0.307 0.332-0.12 0.127-0.245 0.242-0.379 0.354-0.127 0.108-0.227 0.222-0.329 0.354-0.114 0.12-0.229 0.227-0.357 0.332-0.122 0.104-0.21 0.206-0.307 0.332-0.121 0.128-0.247 0.244-0.382 0.357-0.088 0.074-0.152 0.133-0.219 0.227-0.091 0.114-0.197 0.157-0.329 0.213-0.029 0-0.058 0-0.089 0 0 0.029 0 0.058 0 0.089-0.589 0.184-1.137 0.184-1.726 0 0-0.029 0-0.058 0-0.089-0.023-0.004-0.046-0.007-0.069-0.011-0.293-0.090-0.454-0.237-0.639-0.476-0.114-0.12-0.229-0.227-0.357-0.332-0.122-0.104-0.21-0.206-0.307-0.332-0.113-0.119-0.227-0.226-0.354-0.329-0.136-0.116-0.241-0.24-0.354-0.379-0.114-0.12-0.229-0.227-0.357-0.332-0.122-0.104-0.21-0.206-0.307-0.332-0.119-0.126-0.244-0.242-0.376-0.354-0.212-0.18-0.397-0.377-0.577-0.589-0.136-0.157-0.284-0.295-0.441-0.429-0.212-0.18-0.397-0.377-0.577-0.589-0.136-0.157-0.285-0.296-0.444-0.429-0.127-0.108-0.227-0.222-0.329-0.354-0.119-0.126-0.244-0.242-0.376-0.354-0.212-0.18-0.397-0.377-0.577-0.589-0.136-0.157-0.284-0.295-0.441-0.429-0.186-0.158-0.353-0.325-0.509-0.512-0.108-0.127-0.222-0.227-0.354-0.329-0.12-0.114-0.227-0.229-0.332-0.357-0.103-0.121-0.208-0.209-0.332-0.307-0.133-0.156-0.133-0.156-0.133-0.266-0.027-0.010-0.054-0.019-0.082-0.029-0.129-0.081-0.147-0.157-0.194-0.3-0.022-0.064-0.022-0.064-0.045-0.13-0.032-0.116-0.032-0.116-0.032-0.249-0.029 0-0.058 0-0.089 0-0.032-0.347-0.054-0.673 0-1.018 0.029 0 0.058 0 0.089 0 0.011-0.052 0.022-0.104 0.033-0.158 0.047-0.192 0.128-0.339 0.232-0.506 0.029 0 0.058 0 0.089 0 0.015-0.044 0.029-0.088 0.044-0.133 0.029 0 0.058 0 0.089 0 0.001-0.026 0.002-0.051 0.003-0.077 0.068-0.163 0.196-0.2 0.351-0.277 0.029 0 0.058 0 0.089 0 0-0.029 0-0.058 0-0.089 0.507-0.229 1.189-0.29 1.721-0.093 0.184 0.096 0.337 0.223 0.492 0.359 0.032 0.026 0.063 0.053 0.096 0.080 0.136 0.115 0.263 0.229 0.374 0.368 0.112 0.136 0.234 0.238 0.371 0.349 0.112 0.106 0.213 0.21 0.307 0.332 0.107 0.129 0.227 0.226 0.357 0.332 0.111 0.105 0.211 0.208 0.304 0.329 0.1 0.12 0.207 0.214 0.327 0.314 0.143 0.121 0.269 0.249 0.384 0.397 0.107 0.129 0.227 0.226 0.357 0.332 0.111 0.105 0.211 0.208 0.304 0.329 0.1 0.12 0.207 0.214 0.327 0.314 0.143 0.121 0.269 0.249 0.384 0.397 0.107 0.129 0.227 0.226 0.357 0.332 0.164 0.138 0.202 0.229 0.221 0.443 0.029 0 0.058 0 0.089 0 0.034-0.413 0.050-0.823 0.049-1.237 0-0.060 0-0.119 0-0.179 0-0.162-0-0.323-0.001-0.485-0-0.175-0-0.35-0-0.525-0-0.303-0-0.606-0.001-0.909-0.001-0.438-0.001-0.877-0.001-1.316-0-0.712-0.001-1.424-0.001-2.137-0-0.043-0-0.085-0-0.129-0-0.302-0.001-0.604-0.001-0.906-0-0.345-0.001-0.691-0.001-1.036-0-0.043-0-0.085-0-0.129-0.001-0.71-0.001-1.42-0.001-2.13-0-0.437-0.001-0.875-0.001-1.312-0-0.3-0.001-0.599-0.001-0.899-0-0.173-0-0.345-0.001-0.518-0-0.158-0-0.317-0-0.475-0-0.084-0-0.168-0.001-0.252 0-0.294 0.013-0.582 0.050-0.873 0.029 0 0.058 0 0.089 0 0.004-0.036 0.007-0.071 0.011-0.108 0.042-0.198 0.111-0.379 0.21-0.556 0.044-0.022 0.044-0.022 0.089-0.044 0.019-0.035 0.038-0.069 0.058-0.105 0.085-0.133 0.16-0.173 0.296-0.249 0.026-0.028 0.051-0.057 0.077-0.086 0.147-0.135 0.314-0.197 0.498-0.268 0.047-0.018 0.093-0.036 0.141-0.055 0.262-0.051 0.523-0.040 0.788-0.033z"></path>
<path fill="#393939" style="fill: var(--color193, #393939)" d="M17.66 1.461c0.015 0.029 0.029 0.058 0.044 0.089 0.029 0 0.058 0 0.089 0 0.093 0.342 0.101 0.663 0.101 1.016 0 0.062 0 0.125 0.001 0.187 0.001 0.17 0.001 0.341 0.001 0.511 0 0.184 0.001 0.368 0.001 0.552 0.001 0.319 0.001 0.637 0.002 0.956 0 0.461 0.001 0.922 0.003 1.382 0.002 0.748 0.003 1.496 0.004 2.244 0 0.067 0 0.067 0 0.136 0 0.045 0 0.090 0 0.136 0.001 0.636 0.002 1.271 0.003 1.907 0 0.045 0 0.089 0 0.136 0.001 0.745 0.003 1.491 0.005 2.236 0.001 0.46 0.002 0.92 0.002 1.379 0 0.315 0.001 0.63 0.002 0.944 0 0.182 0.001 0.363 0.001 0.545 0 0.166 0 0.332 0.001 0.499 0 0.089 0 0.178 0 0.267 0 0.053 0 0.105 0.001 0.159 0 0.045 0 0.091 0 0.138 0.005 0.105 0.020 0.194 0.050 0.295-0.058 0-0.117 0-0.177 0-0-0.032-0-0.064-0-0.097-0.004-1.896-0.008-3.791-0.012-5.687-0.001-0.228-0.001-0.455-0.002-0.683-0-0.045-0-0.091-0-0.137-0.002-0.734-0.003-1.467-0.005-2.201-0.001-0.753-0.003-1.506-0.005-2.258-0.001-0.465-0.002-0.929-0.003-1.394-0-0.319-0.001-0.637-0.002-0.956-0.001-0.184-0.001-0.368-0.001-0.551-0-0.168-0.001-0.337-0.001-0.505-0-0.090-0-0.179-0-0.269-0.002-0.283-0.022-0.526-0.101-0.797 0-0.058 0-0.117 0-0.177z"></path>
<path fill="#161616" style="fill: var(--color194, #161616)" d="M1.018 31.425c0.177 0.025 0.292 0.084 0.443 0.177 0.13 0.041 0.247 0.050 0.383 0.050 0.062 0 0.062 0 0.126 0 0.046-0 0.091-0 0.138-0 0.049 0 0.097 0 0.147 0 0.164 0 0.329-0 0.493-0 0.118 0 0.237 0 0.355 0 0.258 0 0.517 0 0.775-0 0.384-0 0.768-0 1.152-0 0.646 0 1.292-0 1.938-0 0.64-0 1.28-0 1.919-0 0.040 0 0.079 0 0.12 0 0.202 0 0.404-0 0.606-0 1.431-0 2.861-0 4.291-0.001 1.39-0 2.78-0.001 4.17-0.001 0.064 0 0.064 0 0.13-0 0.43-0 0.86-0 1.29-0 0.876-0 1.752-0 2.628-0 0.040 0 0.081 0 0.122-0 2.691-0 5.382-0.001 8.073-0.002 0 0.029 0 0.058 0 0.089-0.124 0.041-0.198 0.050-0.326 0.050-0.040 0-0.080 0-0.121 0-0.044-0-0.088-0-0.133-0-0.047 0-0.093 0-0.141 0-0.158 0-0.316-0-0.474-0-0.114 0-0.228 0-0.341 0-0.248 0-0.497-0-0.745-0-0.369-0-0.738-0-1.108-0.001-0.621-0-1.242-0-1.863-0.001-0.849-0.001-1.697-0.001-2.546-0.001-0.395-0-0.79-0-1.186-0-0.040 0-0.079-0-0.12-0-0.942-0-1.884-0.001-2.827-0.001-0.041-0-0.082-0-0.125-0-0.669-0-1.338-0.001-2.007-0.001-0.626-0-1.252-0.001-1.879-0.001-0.041-0-0.082-0-0.125-0-0.94-0-1.879-0.001-2.819-0.001-0.040 0-0.079-0-0.12-0-0.395-0-0.789-0-1.184-0-0.847-0-1.695-0-2.542-0.001-0.618-0-1.236-0.001-1.854-0.001-0.367-0-0.734-0-1.101-0.001-0.274-0-0.549-0-0.823-0-0.111 0-0.222-0-0.333-0-0.71-0.005-0.71-0.005-1.417 0.044-0.228 0.012-0.483-0.024-0.689-0.127 0-0.029 0-0.058 0-0.089-0.034-0.005-0.068-0.009-0.102-0.014-0.127-0.032-0.17-0.064-0.252-0.163z"></path>
<path fill="#292929" style="fill: var(--color195, #292929)" d="M17.66 1.461c0.015 0.029 0.029 0.058 0.044 0.089 0.029 0 0.058 0 0.089 0 0.044 0.147 0.050 0.28 0.050 0.434 0 0.053 0 0.106 0 0.16-0 0.087-0 0.087-0 0.176 0 0.062 0 0.124 0 0.187 0 0.171-0 0.342-0 0.514-0 0.185-0 0.369-0 0.554 0 0.32-0 0.64-0 0.959-0 0.462-0 0.925-0.001 1.387-0 0.75-0 1.5-0.001 2.25-0 0.729-0.001 1.457-0.001 2.186 0 0.045-0 0.090-0 0.136-0 0.225-0 0.451-0 0.676-0 1.869-0.001 3.739-0.002 5.608-0.015 0-0.029 0-0.044 0-0-0.031-0-0.062-0-0.094-0.004-1.846-0.008-3.692-0.012-5.537-0.001-0.222-0.001-0.443-0.002-0.665-0-0.044-0-0.088-0-0.134-0.002-0.714-0.003-1.429-0.005-2.143-0.001-0.733-0.003-1.466-0.005-2.199-0.001-0.452-0.002-0.905-0.003-1.357-0-0.31-0.001-0.62-0.002-0.93-0.001-0.179-0.001-0.358-0.001-0.537-0-0.164-0.001-0.328-0.001-0.492-0-0.087-0-0.174-0-0.262-0.002-0.28-0.024-0.518-0.101-0.787 0-0.058 0-0.117 0-0.177z"></path>
<path fill="#292929" style="fill: var(--color195, #292929)" d="M27.751 21.555c0.029 0.015 0.058 0.029 0.089 0.044 0 2.074 0 4.148 0 6.285-0.058 0-0.117 0-0.177 0 0.003-0.032 0.006-0.064 0.010-0.097 0.031-0.332 0.041-0.66 0.039-0.994-0-0.053-0-0.106-0-0.161-0-0.144-0.001-0.288-0.001-0.432-0-0.151-0.001-0.303-0.001-0.454-0-0.384-0.001-0.768-0.002-1.152-0.001-0.415-0.002-0.831-0.002-1.246-0-0.15-0-0.301-0.001-0.451-0.001-0.167-0.001-0.335-0.001-0.502-0-0.049-0-0.099-0.001-0.15-0-0.235 0.008-0.459 0.049-0.691z"></path>
<path fill="#2c2c2c" style="fill: var(--color196, #2c2c2c)" d="M3.851 21.068c0.286 0.34 0.234 0.848 0.231 1.268 0 0.058 0 0.117 0 0.177 0 0.158-0 0.317-0.001 0.475-0.001 0.166-0.001 0.332-0.001 0.498-0 0.314-0.001 0.628-0.002 0.942-0.001 0.358-0.001 0.715-0.002 1.073-0.001 0.735-0.002 1.47-0.004 2.206 0.029 0 0.058 0 0.089 0 0.015 0.058 0.029 0.117 0.044 0.177-0.073 0-0.146 0-0.221 0-0-0.032-0-0.064-0-0.097-0.004-0.781-0.008-1.562-0.012-2.343-0.002-0.378-0.004-0.755-0.006-1.133-0.001-0.329-0.003-0.659-0.005-0.988-0.001-0.174-0.002-0.349-0.003-0.523-0.001-0.164-0.002-0.328-0.003-0.493-0.001-0.089-0.001-0.177-0.001-0.266-0.003-0.283-0.024-0.526-0.102-0.797 0-0.058 0-0.117 0-0.177z"></path>
<path fill="#252525" style="fill: var(--color197, #252525)" d="M21.687 18.811c0.044 0.022 0.044 0.022 0.089 0.044-0.177 0.218-0.357 0.417-0.575 0.595-0.136 0.116-0.241 0.24-0.354 0.379-0.114 0.12-0.229 0.227-0.357 0.332-0.122 0.104-0.21 0.206-0.307 0.332-0.113 0.119-0.227 0.226-0.354 0.329-0.136 0.116-0.241 0.24-0.354 0.379-0.114 0.12-0.229 0.227-0.357 0.332-0.132 0.105-0.132 0.105-0.224 0.23-0.082 0.102-0.14 0.144-0.26 0.191 0.070-0.171 0.179-0.27 0.31-0.398 0.052-0.060 0.104-0.12 0.155-0.18 0.116-0.134 0.235-0.243 0.376-0.351 0.117-0.111 0.222-0.223 0.324-0.349 0.082-0.101 0.169-0.184 0.268-0.267 0.269-0.233 0.516-0.488 0.766-0.74 0.050-0.050 0.1-0.1 0.149-0.15 0.092-0.092 0.183-0.184 0.274-0.276 0.114-0.115 0.228-0.229 0.342-0.343 0.029-0.029 0.058-0.058 0.089-0.089z"></path>
<path fill="#323232" style="fill: var(--color198, #323232)" d="M10.357 19.165c0.154 0.066 0.253 0.154 0.37 0.273 0.055 0.055 0.055 0.055 0.11 0.111 0.038 0.038 0.075 0.077 0.114 0.116 0.037 0.038 0.075 0.076 0.114 0.115 0.127 0.129 0.254 0.258 0.381 0.387 0.089 0.090 0.178 0.171 0.277 0.251 0.109 0.089 0.199 0.186 0.29 0.293 0.098 0.115 0.196 0.217 0.313 0.313 0.115 0.094 0.211 0.194 0.307 0.307 0.155 0.183 0.328 0.337 0.512 0.49-0.015 0.044-0.029 0.088-0.044 0.133-0.172-0.137-0.307-0.268-0.443-0.443-0.12-0.127-0.245-0.242-0.379-0.354-0.127-0.108-0.227-0.222-0.329-0.354-0.114-0.12-0.229-0.227-0.357-0.332-0.122-0.104-0.21-0.206-0.307-0.332-0.119-0.126-0.244-0.242-0.376-0.354-0.206-0.175-0.391-0.359-0.553-0.575 0-0.015 0-0.029 0-0.044z"></path>
<path fill="#6a6a6a" style="fill: var(--color199, #6a6a6a)" d="M4.028 21.732c0.015 0 0.029 0 0.044 0 0 1.972 0 3.944 0 5.975 0.029 0 0.058 0 0.089 0 0.015 0.058 0.029 0.117 0.044 0.177-0.058-0.015-0.117-0.029-0.177-0.044 0-2.016 0-4.031 0-6.108z"></path>
<path fill="#323232" style="fill: var(--color198, #323232)" d="M7.568 16.376c0.139 0.062 0.233 0.133 0.339 0.241 0.046 0.047 0.046 0.047 0.094 0.094 0.033 0.033 0.066 0.067 0.1 0.101s0.068 0.069 0.103 0.104c0.109 0.109 0.217 0.219 0.326 0.329 0.074 0.074 0.148 0.148 0.221 0.223 0.181 0.182 0.362 0.364 0.542 0.546-0.022 0.044-0.022 0.044-0.044 0.089-0.215-0.166-0.4-0.347-0.575-0.553-0.18-0.212-0.377-0.397-0.589-0.577-0.193-0.167-0.359-0.353-0.518-0.552 0-0.015 0-0.029 0-0.044z"></path>
<path fill="#252525" style="fill: var(--color197, #252525)" d="M18.545 21.953c0.029 0.015 0.058 0.029 0.089 0.044-0.16 0.208-0.33 0.387-0.534 0.553-0.122 0.104-0.21 0.206-0.307 0.332-0.121 0.128-0.247 0.244-0.382 0.357-0.112 0.094-0.196 0.189-0.282 0.307-0.029 0-0.058 0-0.089 0 0.063-0.145 0.141-0.24 0.254-0.351 0.033-0.032 0.065-0.065 0.099-0.098s0.068-0.067 0.103-0.101c0.034-0.033 0.067-0.066 0.102-0.101 0.065-0.064 0.13-0.129 0.196-0.193 0.103-0.102 0.206-0.204 0.308-0.307 0.221-0.221 0.221-0.221 0.443-0.443z"></path>
<path fill="#393939" style="fill: var(--color193, #393939)" d="M17.837 13.942c0.015 0 0.029 0 0.044 0 0 0.038 0.001 0.076 0.001 0.115 0.004 0.357 0.009 0.714 0.014 1.071 0.002 0.183 0.005 0.367 0.007 0.55 0.002 0.177 0.004 0.354 0.007 0.531 0.001 0.068 0.002 0.135 0.003 0.203 0.001 0.095 0.002 0.189 0.004 0.284 0.001 0.054 0.001 0.108 0.002 0.163 0.006 0.113 0.018 0.207 0.051 0.314-0.058 0-0.117 0-0.177 0 0.015-1.066 0.029-2.132 0.044-3.231z"></path>
<path fill="#232323" style="fill: var(--color200, #232323)" d="M24.476 16.111c-0.067 0.17-0.168 0.242-0.31 0.354-0.075 0.088-0.148 0.176-0.221 0.266-0.113 0.119-0.227 0.226-0.354 0.329-0.1 0.085-0.172 0.157-0.252 0.257-0.102 0.122-0.102 0.122-0.235 0.166 0.073-0.189 0.215-0.316 0.355-0.456 0.026-0.026 0.052-0.053 0.079-0.080 0.055-0.055 0.111-0.11 0.166-0.166 0.085-0.085 0.17-0.17 0.254-0.255 0.054-0.054 0.108-0.107 0.161-0.161 0.025-0.026 0.051-0.051 0.077-0.078 0.18-0.178 0.18-0.178 0.278-0.178z"></path>
<path fill="#242424" style="fill: var(--color201, #242424)" d="M22.971 17.527c0.044 0 0.088 0 0.133 0 0 0.029 0 0.058 0 0.089-0.075 0.053-0.151 0.106-0.227 0.158-0.122 0.093-0.209 0.209-0.304 0.329-0.113 0.119-0.227 0.226-0.354 0.329-0.101 0.086-0.174 0.159-0.255 0.26-0.049 0.059-0.049 0.059-0.1 0.119-0.029 0-0.058 0-0.089 0 0.066-0.154 0.154-0.253 0.273-0.37 0.037-0.036 0.073-0.073 0.111-0.11 0.058-0.056 0.058-0.056 0.116-0.114 0.038-0.037 0.076-0.075 0.115-0.113 0.073-0.072 0.146-0.144 0.219-0.216 0.106-0.105 0.212-0.21 0.317-0.315 0.015-0.015 0.029-0.029 0.044-0.044z"></path>
<path fill="#2a2a2a" style="fill: var(--color202, #2a2a2a)" d="M12.171 15.491c0.244 0.153 0.43 0.329 0.614 0.55 0.118 0.14 0.246 0.254 0.39 0.367 0.029 0.028 0.029 0.028 0.058 0.056 0 0.029 0 0.058 0 0.089-0.169-0.069-0.277-0.175-0.398-0.31 0-0.029 0-0.058 0-0.089-0.025-0.011-0.049-0.022-0.075-0.033-0.24-0.13-0.431-0.321-0.589-0.542 0-0.029 0-0.058 0-0.089z"></path>
<path fill="#353535" style="fill: var(--color203, #353535)" d="M1.018 31.425c0.177 0.025 0.292 0.084 0.443 0.177 0.162 0.053 0.328 0.058 0.498 0.069 0.056 0.004 0.112 0.007 0.169 0.011 0.043 0.003 0.085 0.005 0.129 0.008 0 0.044 0 0.088 0 0.133-0.098-0.005-0.196-0.011-0.293-0.017-0.054-0.003-0.109-0.006-0.165-0.009-0.154-0.017-0.282-0.052-0.427-0.107 0-0.029 0-0.058 0-0.089-0.034-0.005-0.068-0.009-0.102-0.014-0.127-0.032-0.17-0.064-0.252-0.163z"></path>
<path fill="#222" style="fill: var(--color204, #222)" d="M1.284 20.138c-0.050 0.149-0.090 0.182-0.207 0.279-0.119 0.101-0.232 0.203-0.34 0.315-0.116 0.113-0.116 0.113-0.205 0.113 0 0.029 0 0.058 0 0.089-0.029 0-0.058 0-0.089 0 0.061-0.186 0.146-0.297 0.285-0.434 0.035-0.035 0.069-0.070 0.105-0.106 0.097-0.079 0.097-0.079 0.23-0.079 0-0.029 0-0.058 0-0.089 0.133-0.089 0.133-0.089 0.221-0.089z"></path>
<path fill="#131313" style="fill: var(--color205, #131313)" d="M16.199 0.266c0 0.029 0 0.058 0 0.089 0.102 0 0.204 0 0.31 0 0 0.015 0 0.029 0 0.044-0.026-0.001-0.052-0.001-0.079-0.002-0.12-0.003-0.241-0.005-0.361-0.006-0.041-0.001-0.082-0.002-0.124-0.003-0.246-0.003-0.446 0.023-0.677 0.111-0.087 0.033-0.173 0.056-0.264 0.077 0.015-0.044 0.029-0.088 0.044-0.133 0.094-0.047 0.094-0.047 0.221-0.089 0.043-0.016 0.086-0.033 0.13-0.050 0.257-0.073 0.535-0.045 0.799-0.039z"></path>
<path fill="#333" style="fill: var(--color206, #333)" d="M9.295 18.102c0.162 0.068 0.265 0.166 0.388 0.291 0.039 0.040 0.079 0.079 0.119 0.12s0.081 0.083 0.123 0.126c0.042 0.042 0.084 0.084 0.126 0.127 0.102 0.103 0.204 0.207 0.306 0.31-0.015 0.029-0.029 0.058-0.044 0.089-0.159-0.119-0.276-0.242-0.398-0.398-0.145-0.153-0.298-0.288-0.462-0.419-0.076-0.075-0.115-0.147-0.157-0.245z"></path>
<path fill="#343434" style="fill: var(--color207, #343434)" d="M13.145 21.953c0.171 0.070 0.27 0.179 0.398 0.31 0.060 0.052 0.12 0.104 0.18 0.155 0.134 0.115 0.247 0.233 0.351 0.376-0.015 0.029-0.029 0.058-0.044 0.089-0.030-0.031-0.060-0.062-0.091-0.094-0.092-0.092-0.188-0.177-0.288-0.26-0.127-0.108-0.228-0.221-0.329-0.354-0.033-0.033-0.066-0.066-0.1-0.1-0.026-0.026-0.051-0.051-0.077-0.077 0-0.015 0-0.029 0-0.044z"></path>
<path fill="#363636" style="fill: var(--color208, #363636)" d="M22.396 12.614c0.029 0 0.058 0 0.089 0-0.008 0.102-0.008 0.102-0.044 0.221-0.074 0.044-0.147 0.089-0.221 0.133-0.078 0.075-0.155 0.151-0.23 0.23-0.069 0.073-0.14 0.144-0.213 0.213-0.029 0-0.058 0-0.089 0 0.106-0.261 0.339-0.426 0.551-0.601 0.080-0.068 0.080-0.068 0.157-0.196z"></path>
<path fill="#2c2c2c" style="fill: var(--color196, #2c2c2c)" d="M3.142 20.315c0.152 0.068 0.274 0.155 0.398 0.266 0 0.029 0 0.058 0 0.089 0.029 0 0.058 0 0.089 0 0.221 0.242 0.221 0.242 0.221 0.354-0.122-0.016-0.169-0.036-0.254-0.128-0.025-0.034-0.049-0.069-0.075-0.104-0.090-0.122-0.178-0.237-0.288-0.343-0.030-0.029-0.060-0.058-0.091-0.089 0-0.015 0-0.029 0-0.044z"></path>
<path fill="#333" style="fill: var(--color206, #333)" d="M18.678 16.332c0.029 0 0.058 0 0.089 0-0.125 0.281-0.345 0.563-0.633 0.678-0.059 0.015-0.059 0.015-0.119 0.030 0-0.029 0-0.058 0-0.089 0.026-0.010 0.051-0.020 0.077-0.030 0.126-0.073 0.188-0.164 0.277-0.279 0.073-0.075 0.147-0.149 0.221-0.221 0.029-0.029 0.058-0.058 0.089-0.089z"></path>
<path fill="#2a2a2a" style="fill: var(--color202, #2a2a2a)" d="M11.508 14.827c0.179 0.094 0.274 0.196 0.398 0.354 0.047 0.041 0.095 0.080 0.144 0.119 0.040 0.034 0.080 0.068 0.122 0.102 0 0.029 0 0.058 0 0.089-0.276-0.123-0.489-0.332-0.664-0.575 0-0.029 0-0.058 0-0.089z"></path>
<path fill="#242424" style="fill: var(--color201, #242424)" d="M14.871 0.531c0.029 0 0.058 0 0.089 0 0 0.029 0 0.058 0 0.089-0.029 0-0.058 0-0.089 0-0.019 0.041-0.019 0.041-0.039 0.083-0.075 0.142-0.183 0.227-0.315 0.315-0.044 0-0.088 0-0.133 0 0.065-0.172 0.153-0.22 0.31-0.31 0.048-0.048 0.048-0.048 0.097-0.097 0.026-0.026 0.053-0.053 0.080-0.080z"></path>
<path fill="#2b2b2b" style="fill: var(--color209, #2b2b2b)" d="M10.844 14.163c0.177 0.096 0.304 0.208 0.443 0.354 0.041 0.039 0.082 0.079 0.124 0.119 0.097 0.102 0.097 0.102 0.097 0.191-0.178-0.071-0.299-0.197-0.432-0.332-0.022-0.022-0.045-0.044-0.068-0.067-0.164-0.165-0.164-0.165-0.164-0.265z"></path>
<path fill="#2e2e2e" style="fill: var(--color210, #2e2e2e)" d="M9.516 12.835c0.17 0.067 0.242 0.168 0.354 0.31 0.046 0.040 0.093 0.078 0.141 0.116 0.124 0.105 0.124 0.105 0.169 0.238-0.178-0.071-0.299-0.197-0.432-0.332-0.022-0.022-0.045-0.044-0.068-0.067-0.164-0.165-0.164-0.165-0.164-0.265z"></path>
<path fill="#272727" style="fill: var(--color211, #272727)" d="M14.34 1.062c0.015 0.029 0.029 0.058 0.044 0.089-0.015 0.044-0.029 0.088-0.044 0.133-0.029 0-0.058 0-0.089 0-0.004 0.028-0.007 0.057-0.011 0.086-0.046 0.189-0.128 0.358-0.21 0.534-0.029-0.015-0.058-0.029-0.089-0.044 0-0.029 0-0.058 0-0.089 0.029 0 0.058 0 0.089 0 0.004-0.036 0.007-0.071 0.011-0.108 0.042-0.198 0.111-0.379 0.21-0.556 0.029-0.015 0.058-0.029 0.089-0.044z"></path>
<path fill="#272727" style="fill: var(--color211, #272727)" d="M21.51 13.544c0 0.164-0.037 0.191-0.144 0.31-0.040 0.045-0.040 0.045-0.081 0.091-0.082 0.083-0.167 0.151-0.262 0.219-0.029-0.015-0.058-0.029-0.089-0.044 0.169-0.22 0.348-0.415 0.575-0.575z"></path>
<path fill="#292929" style="fill: var(--color195, #292929)" d="M23.591 12.127c-0.015 0.029-0.029 0.058-0.044 0.089-0.087 0.026-0.175 0.047-0.263 0.066-0.2 0.038-0.2 0.038-0.357 0.155-0.094-0.017-0.094-0.017-0.177-0.044 0.044 0 0.088 0 0.133 0 0-0.044 0-0.088 0-0.133 0.234-0.103 0.453-0.14 0.708-0.133z"></path>
<path fill="#3e3e3e" style="fill: var(--color212, #3e3e3e)" d="M30.982 31.248c0 0.044 0 0.088 0 0.133-0.329 0.196-0.329 0.196-0.487 0.221 0 0.029 0 0.058 0 0.089-0.029 0-0.058 0-0.089 0 0-0.058 0-0.117 0-0.177 0.036-0.005 0.071-0.011 0.108-0.017 0.037-0.009 0.075-0.018 0.113-0.028 0.015-0.029 0.029-0.058 0.044-0.089 0.102-0.047 0.206-0.091 0.31-0.133z"></path>
<path fill="#2b2b2b" style="fill: var(--color209, #2b2b2b)" d="M17.616 22.882c0.029 0.015 0.058 0.029 0.089 0.044-0.445 0.53-0.445 0.53-0.664 0.62 0.071-0.18 0.201-0.299 0.337-0.432 0.023-0.022 0.046-0.045 0.069-0.068 0.056-0.055 0.112-0.11 0.169-0.164z"></path>
<path fill="#353535" style="fill: var(--color203, #353535)" d="M6.905 15.712c0.18 0.071 0.299 0.201 0.432 0.337 0.022 0.023 0.045 0.046 0.068 0.069 0.055 0.056 0.11 0.112 0.164 0.169-0.015 0.029-0.029 0.058-0.044 0.089-0.253-0.195-0.45-0.394-0.62-0.664z"></path>
<path fill="#3b3b3b" style="fill: var(--color213, #3b3b3b)" d="M31.425 30.628c0.029 0 0.058 0 0.089 0-0.054 0.198-0.114 0.305-0.266 0.443-0.044 0.066-0.044 0.066-0.089 0.133-0.029 0-0.058 0-0.089 0 0.069-0.22 0.2-0.406 0.354-0.575z"></path>
<path fill="#292929" style="fill: var(--color195, #292929)" d="M31.38 21.023c0.044 0.015 0.088 0.029 0.133 0.044 0.042 0.093 0.042 0.093 0.075 0.21 0.011 0.038 0.022 0.076 0.034 0.116 0.024 0.116 0.029 0.22 0.024 0.338-0.089-0.044-0.089-0.044-0.125-0.149-0.011-0.043-0.022-0.086-0.033-0.131-0.011-0.043-0.022-0.085-0.033-0.13-0.010-0.040-0.020-0.081-0.030-0.122-0.009-0.034-0.017-0.069-0.026-0.104-0.006-0.024-0.012-0.048-0.018-0.073z"></path>
<path fill="#2c2c2c" style="fill: var(--color196, #2c2c2c)" d="M23.104 17.527c0 0.029 0 0.058 0 0.089-0.076 0.054-0.152 0.108-0.229 0.16-0.105 0.080-0.177 0.178-0.257 0.282-0.029 0-0.058 0-0.089 0 0.069-0.17 0.178-0.273 0.31-0.398 0.024-0.026 0.047-0.053 0.072-0.080 0.061-0.053 0.061-0.053 0.194-0.053z"></path>
<path fill="#2e2e2e" style="fill: var(--color210, #2e2e2e)" d="M17.66 1.461c0.015 0.029 0.029 0.058 0.044 0.089 0.029 0 0.058 0 0.089 0 0.053 0.166 0.049 0.325 0.047 0.498-0 0.056-0.001 0.112-0.001 0.169-0 0.043-0.001 0.085-0.002 0.129-0.015 0-0.029 0-0.044 0-0.022-0.114-0.044-0.229-0.066-0.343-0.006-0.032-0.013-0.065-0.019-0.098-0.029-0.152-0.047-0.289-0.047-0.444z"></path>
<path fill="#323232" style="fill: var(--color198, #323232)" d="M20.183 14.871c0 0.133 0 0.133-0.094 0.243-0.040 0.040-0.081 0.079-0.122 0.12-0.040 0.040-0.080 0.080-0.121 0.121-0.105 0.092-0.105 0.092-0.194 0.092 0.103-0.253 0.32-0.412 0.531-0.575z"></path>
<path fill="#4d4d4d" style="fill: var(--color214, #4d4d4d)" d="M17.837 16.553c0.094 0.152 0.092 0.267 0.089 0.443 0.019 0.1 0.019 0.1 0.044 0.177-0.058 0-0.117 0-0.177 0-0.008-0.416-0.008-0.416 0.044-0.62z"></path>
<path fill="#343434" style="fill: var(--color207, #343434)" d="M14.075 22.882c0.234 0.099 0.441 0.27 0.575 0.487 0 0.029 0 0.058 0 0.089-0.029 0-0.058 0-0.089 0-0.054-0.063-0.109-0.127-0.161-0.192-0.068-0.084-0.068-0.084-0.182-0.195-0.1-0.1-0.1-0.1-0.144-0.188z"></path>
<path fill="#333" style="fill: var(--color206, #333)" d="M25.45 14.916c0.029 0 0.058 0 0.089 0-0.057 0.221-0.139 0.337-0.31 0.487-0.044 0.022-0.044 0.022-0.089 0.044 0-0.133 0-0.133 0.080-0.216 0.032-0.031 0.064-0.062 0.097-0.094 0.036-0.060 0.036-0.060 0.072-0.122 0.020-0.033 0.040-0.066 0.061-0.1z"></path>
<path fill="#343434" style="fill: var(--color207, #343434)" d="M20.846 14.207c0 0.133 0 0.133-0.084 0.233-0.036 0.035-0.072 0.071-0.11 0.107-0.036 0.036-0.072 0.072-0.109 0.108-0.096 0.082-0.096 0.082-0.184 0.082 0.080-0.24 0.292-0.381 0.487-0.531z"></path>
<path fill="#484848" style="fill: var(--color215, #484848)" d="M27.707 27.131c0.029 0.015 0.058 0.029 0.089 0.044 0 0.219 0 0.438 0 0.664-0.044 0.015-0.088 0.029-0.133 0.044 0.003-0.036 0.006-0.072 0.010-0.108 0.004-0.047 0.008-0.095 0.012-0.143 0.004-0.047 0.008-0.093 0.012-0.142 0.008-0.12 0.011-0.238 0.010-0.359z"></path>
<path fill="#262626" style="fill: var(--color216, #262626)" d="M6.196 14.739c0.029 0 0.058 0 0.089 0 0.037 0.072 0.074 0.144 0.111 0.216 0.021 0.040 0.041 0.080 0.062 0.121 0.048 0.105 0.048 0.105 0.048 0.194-0.080-0.025-0.080-0.025-0.177-0.089-0.079-0.155-0.133-0.267-0.133-0.443z"></path>
<path fill="#1e1e1e" style="fill: var(--color217, #1e1e1e)" d="M24.21 12.171c0.197-0.017 0.316 0.037 0.487 0.133 0 0.029 0 0.058 0 0.089 0.029 0.015 0.058 0.029 0.089 0.044-0.132-0.031-0.259-0.070-0.387-0.113-0.035-0.012-0.071-0.024-0.107-0.036-0.040-0.014-0.040-0.014-0.081-0.027 0-0.029 0-0.058 0-0.089z"></path>
<path fill="#4e4e4e" style="fill: var(--color218, #4e4e4e)" d="M13.898 16.598c0.029 0 0.058 0 0.089 0 0 0.175 0 0.351 0 0.531-0.044 0-0.088 0-0.133 0 0.015-0.175 0.029-0.351 0.044-0.531z"></path>
<path fill="#292929" style="fill: var(--color195, #292929)" d="M15.712 0.354c-0.235 0.080-0.469 0.155-0.708 0.221 0.044-0.133 0.044-0.133 0.141-0.183 0.203-0.063 0.361-0.098 0.567-0.039z"></path>
<path fill="#292929" style="fill: var(--color195, #292929)" d="M13.721 22.44c0.118 0.118 0.236 0.236 0.354 0.354-0.015 0.029-0.029 0.058-0.044 0.089-0.103-0.103-0.207-0.207-0.31-0.31 0-0.044 0-0.088 0-0.133z"></path>
<path fill="#1e1e1e" style="fill: var(--color217, #1e1e1e)" d="M0.266 21.156c0.029 0 0.058 0 0.089 0-0.029 0.161-0.058 0.321-0.089 0.487-0.029 0-0.058 0-0.089 0 0.006-0.065 0.013-0.129 0.019-0.194 0.004-0.036 0.007-0.072 0.011-0.109 0.014-0.096 0.014-0.096 0.058-0.184z"></path>
<path fill="#333" style="fill: var(--color206, #333)" d="M19.474 15.58c0.029 0.015 0.058 0.029 0.089 0.044-0.131 0.131-0.263 0.263-0.398 0.398 0-0.191 0.096-0.261 0.221-0.398 0.029-0.015 0.058-0.029 0.089-0.044z"></path>
<path fill="#232323" style="fill: var(--color200, #232323)" d="M25.228 12.791c0.196 0.065 0.218 0.173 0.31 0.354 0 0.029 0 0.058 0 0.089-0.029 0-0.058 0-0.089 0-0.057-0.074-0.057-0.074-0.116-0.171-0.020-0.032-0.039-0.064-0.060-0.096-0.045-0.086-0.045-0.086-0.045-0.175z"></path>
<path fill="#232323" style="fill: var(--color200, #232323)" d="M0.443 30.761c0.026 0.034 0.053 0.068 0.080 0.102 0.073 0.090 0.146 0.172 0.23 0.252-0.015 0.044-0.029 0.088-0.044 0.133-0.117-0.11-0.207-0.203-0.266-0.354 0-0.044 0-0.088 0-0.133z"></path>
<path fill="#303030" style="fill: var(--color219, #303030)" d="M16.775 23.679c0 0.029 0 0.058 0 0.089-0.131 0.029-0.263 0.058-0.398 0.089 0-0.044 0-0.088 0-0.133 0.14-0.031 0.253-0.044 0.398-0.044z"></path>
<path fill="#2a2a2a" style="fill: var(--color202, #2a2a2a)" d="M11.773 20.492c0.144 0.14 0.275 0.283 0.398 0.443-0.153-0.068-0.277-0.151-0.398-0.266 0-0.058 0-0.117 0-0.177z"></path>
<path fill="#282828" style="fill: var(--color220, #282828)" d="M24.786 15.712c0.029 0.015 0.058 0.029 0.089 0.044-0.041 0.051-0.083 0.102-0.124 0.152-0.035 0.042-0.035 0.042-0.070 0.086-0.071 0.072-0.071 0.072-0.204 0.116 0.069-0.169 0.179-0.274 0.31-0.398z"></path>
<path fill="#2e2e2e" style="fill: var(--color210, #2e2e2e)" d="M10.445 13.765c0.187 0.112 0.3 0.202 0.398 0.398-0.169-0.069-0.277-0.175-0.398-0.31 0-0.029 0-0.058 0-0.089z"></path>
<path fill="#7e7e7e" style="fill: var(--color221, #7e7e7e)" d="M4.028 27.353c0.015 0 0.029 0 0.044 0 0 0.117 0 0.234 0 0.354 0.029 0 0.058 0 0.089 0 0.015 0.058 0.029 0.117 0.044 0.177-0.058-0.015-0.117-0.029-0.177-0.044 0-0.161 0-0.321 0-0.487z"></path>
<path fill="#2a2a2a" style="fill: var(--color202, #2a2a2a)" d="M2.7 20.094c0.157 0.027 0.296 0.070 0.443 0.133 0 0.029 0 0.058 0 0.089-0.165-0.022-0.298-0.049-0.443-0.133 0-0.029 0-0.058 0-0.089z"></path>
<path fill="#313131" style="fill: var(--color222, #313131)" d="M6.506 15.314c0.169 0.069 0.274 0.179 0.398 0.31-0.015 0.029-0.029 0.058-0.044 0.089-0.161-0.117-0.261-0.222-0.354-0.398z"></path>
<path fill="#1e1e1e" style="fill: var(--color217, #1e1e1e)" d="M31.071 20.625c0.149 0.064 0.247 0.144 0.354 0.266 0 0.029 0 0.058 0 0.089-0.058-0.015-0.117-0.029-0.177-0.044-0.015-0.058-0.029-0.117-0.044-0.177-0.029 0-0.058 0-0.089 0-0.015-0.044-0.029-0.088-0.044-0.133z"></path>
<path fill="#1e1e1e" style="fill: var(--color217, #1e1e1e)" d="M19.873 20.625c0.015 0.044 0.029 0.088 0.044 0.133-0.035 0.027-0.069 0.055-0.105 0.083-0.115 0.090-0.115 0.090-0.205 0.183-0.029-0.029-0.058-0.058-0.089-0.089 0.117-0.102 0.234-0.204 0.354-0.31z"></path>
<path fill="#242424" style="fill: var(--color201, #242424)" d="M22.396 12.614c0.029 0 0.058 0 0.089 0-0.008 0.105-0.008 0.105-0.044 0.221-0.113 0.058-0.113 0.058-0.221 0.089 0.053-0.11 0.109-0.207 0.177-0.31z"></path>
<path fill="#222" style="fill: var(--color204, #222)" d="M17.394 1.062c0.166 0.055 0.188 0.114 0.266 0.266 0 0.029 0 0.058 0 0.089-0.166-0.055-0.188-0.114-0.266-0.266 0-0.029 0-0.058 0-0.089z"></path>
<path fill="#333" style="fill: var(--color206, #333)" d="M30.982 31.248c0 0.044 0 0.088 0 0.133-0.133 0.089-0.133 0.089-0.31 0.089 0-0.029 0-0.058 0-0.089 0.102-0.044 0.204-0.088 0.31-0.133z"></path>
<path fill="#2f2f2f" style="fill: var(--color223, #2f2f2f)" d="M30.761 20.315c0.118 0.059 0.236 0.118 0.354 0.177 0 0.029 0 0.058 0 0.089-0.102-0.008-0.102-0.008-0.221-0.044-0.080-0.113-0.080-0.113-0.133-0.221z"></path>
<path fill="#363636" style="fill: var(--color208, #363636)" d="M21.51 13.544c0 0.133 0 0.133-0.111 0.252-0.037 0.034-0.073 0.068-0.111 0.102-0.029-0.015-0.058-0.029-0.089-0.044 0.21-0.26 0.21-0.26 0.31-0.31z"></path>
<path fill="#333" style="fill: var(--color206, #333)" d="M17.306 23.192c0 0.174-0.062 0.229-0.177 0.354-0.029 0-0.058 0-0.089 0 0.064-0.149 0.148-0.244 0.266-0.354z"></path>
<path fill="#2a2a2a" style="fill: var(--color202, #2a2a2a)" d="M18.943 21.643c-0.064 0.169-0.152 0.227-0.31 0.31 0.139-0.31 0.139-0.31 0.31-0.31z"></path>
<path fill="#2c2c2c" style="fill: var(--color196, #2c2c2c)" d="M30.318 20.094c0.149 0.024 0.225 0.047 0.354 0.133-0.015 0.029-0.029 0.058-0.044 0.089-0.102-0.044-0.204-0.088-0.31-0.133 0-0.029 0-0.058 0-0.089z"></path>
<path fill="#2d2d2d" style="fill: var(--color224, #2d2d2d)" d="M13.234 16.553c0.158 0.083 0.246 0.14 0.31 0.31-0.158-0.083-0.246-0.14-0.31-0.31z"></path>
<path fill="#262626" style="fill: var(--color216, #262626)" d="M24.122 16.376c0.029 0.015 0.058 0.029 0.089 0.044-0.072 0.090-0.145 0.179-0.221 0.266-0.029 0-0.058 0-0.089 0 0.057-0.128 0.118-0.216 0.221-0.31z"></path>
<path fill="#222" style="fill: var(--color204, #222)" d="M6.329 13.057c0.029 0.015 0.058 0.029 0.089 0.044-0.058 0.117-0.117 0.234-0.177 0.354-0.044-0.177-0.044-0.177 0.019-0.299 0.023-0.033 0.046-0.066 0.069-0.1z"></path>
<path fill="#262626" style="fill: var(--color216, #262626)" d="M9.516 12.835c0.109 0.051 0.179 0.091 0.266 0.177-0.015 0.044-0.029 0.088-0.044 0.133-0.076-0.072-0.149-0.146-0.221-0.221 0-0.029 0-0.058 0-0.089z"></path>
</symbol>
<symbol id="fullscreen" viewBox="0 0 32 32">
<path d="M23.080 18.64c0.884 0 1.769 0 2.68 0 0 2.35 0 4.699 0 7.12-2.35 0-4.699 0-7.12 0 0-0.884 0-1.769 0-2.68 2.198-0.020 2.198-0.020 4.44-0.040 0-1.452 0-2.904 0-4.4z"></path>
<path d="M6.24 18.64c0.884 0 1.769 0 2.68 0 0 1.452 0 2.904 0 4.4 1.465 0.013 2.93 0.026 4.44 0.040 0 0.884 0 1.769 0 2.68-2.35 0-4.699 0-7.12 0 0-2.35 0-4.699 0-7.12z"></path>
<path d="M18.64 6.24c2.35 0 4.699 0 7.12 0 0 2.35 0 4.699 0 7.12-0.884 0-1.769 0-2.68 0 0-1.452 0-2.904 0-4.4-1.465-0.013-2.93-0.026-4.44-0.040 0-0.884 0-1.769 0-2.68z"></path>
<path d="M6.24 6.24c2.35 0 4.699 0 7.12 0 0 0.884 0 1.769 0 2.68-2.198 0.020-2.198 0.020-4.44 0.040 0 1.452 0 2.904 0 4.4-0.884 0-1.769 0-2.68 0 0-2.35 0-4.699 0-7.12z"></path>
</symbol>
<symbol id="icon-app-logo" viewBox="0 0 32 32">
<path fill="#9350da" style="fill: var(--color1, #9350da)" d="M4.183 0.087c0.106-0 0.213-0.001 0.319-0.001 0.291-0.001 0.582-0.001 0.873-0 0.314 0 0.629-0 0.943-0.001 0.615-0.001 1.231-0.001 1.846-0.001 0.5 0 1.001 0 1.501-0 0.072-0 0.144-0 0.216-0 0.108-0 0.217-0 0.325-0 1.008-0.001 2.016-0.001 3.025-0 0.038 0 0.076 0 0.115 0 0.308 0 0.617 0 0.925 0 1.202 0.001 2.405 0 3.607-0.001 1.352-0.001 2.704-0.002 4.057-0.002 0.144 0 0.289 0 0.433 0 0.071 0 0.142 0 0.215 0 0.499 0 0.999-0 1.498-0.001 0.609-0.001 1.218-0.001 1.827 0 0.311 0 0.621 0.001 0.932-0 0.285-0.001 0.569-0.001 0.854 0.001 0.103 0 0.205 0 0.308-0.001 1.109-0.006 2.082 0.187 2.91 0.985 0.039 0.040 0.078 0.079 0.119 0.12 0.034 0.033 0.068 0.066 0.104 0.1 0.738 0.766 0.836 1.731 0.833 2.738 0 0.108 0.001 0.216 0.001 0.324 0.001 0.296 0.001 0.592 0 0.887-0 0.319 0 0.639 0.001 0.958 0.001 0.589 0.001 1.179 0.001 1.768-0 0.544-0 1.089 0 1.633 0 0.073 0 0.146 0 0.219 0 0.11 0 0.22 0 0.331 0.001 1.024 0.001 2.048 0 3.072-0 0.058-0 0.058-0 0.117-0 0.313-0 0.627-0 0.94-0.001 1.222-0 2.444 0.001 3.665 0.001 1.374 0.002 2.747 0.002 4.121-0 0.147-0 0.293-0 0.44 0 0.036-0 0.072-0 0.109-0 0.544 0 1.088 0.001 1.632 0.001 0.619 0.001 1.238-0 1.857-0 0.316-0.001 0.631 0 0.947 0.001 0.289 0 0.578-0.001 0.867-0 0.104-0 0.209 0.001 0.313 0.005 1.072-0.239 1.988-1.009 2.769-0.898 0.868-1.894 1.032-3.094 1.028-0.106 0-0.213 0.001-0.319 0.001-0.291 0.001-0.582 0.001-0.873 0-0.314-0-0.629 0-0.943 0.001-0.615 0.001-1.231 0.001-1.846 0.001-0.5-0-1.001-0-1.501 0-0.072 0-0.144 0-0.216 0-0.108 0-0.217 0-0.326 0-1.008 0.001-2.016 0.001-3.025 0-0.038-0-0.076-0-0.115-0-0.308-0-0.617-0-0.925-0-1.202-0.001-2.405-0-3.607 0.001-1.352 0.001-2.704 0.002-4.057 0.002-0.144-0-0.289-0-0.433-0-0.071-0-0.142-0-0.215-0-0.499-0-0.999 0-1.498 0.001-0.609 0.001-1.218 0.001-1.827-0-0.311-0-0.621-0.001-0.932 0-0.285 0.001-0.569 0.001-0.854-0.001-0.103-0-0.205-0-0.308 0.001-1.109 0.006-2.082-0.187-2.91-0.985-0.039-0.040-0.078-0.079-0.119-0.12-0.034-0.033-0.068-0.066-0.104-0.1-0.738-0.766-0.836-1.731-0.833-2.738-0-0.108-0.001-0.216-0.001-0.324-0.001-0.296-0.001-0.592-0-0.887 0-0.319-0-0.639-0.001-0.958-0.001-0.589-0.001-1.179-0.001-1.768 0-0.544 0-1.089-0-1.633-0-0.073-0-0.146-0-0.219-0-0.11-0-0.22-0-0.331-0.001-1.024-0.001-2.048-0-3.072 0-0.039 0-0.077 0-0.117 0-0.313 0-0.627 0-0.94 0.001-1.222 0-2.444-0.001-3.665-0.001-1.374-0.002-2.747-0.002-4.121 0-0.147 0-0.293 0-0.44 0-0.054 0-0.054 0-0.109 0-0.544-0-1.088-0.001-1.632-0.001-0.619-0.001-1.238 0-1.856 0-0.316 0.001-0.631-0-0.947-0.001-0.289-0.001-0.578 0.001-0.867 0-0.104 0-0.209-0.001-0.313-0.005-1.072 0.239-1.988 1.009-2.769 0.898-0.868 1.894-1.032 3.094-1.028z"></path>
<path fill="#9350d8" style="fill: var(--color2, #9350d8)" d="M3.178 10.343c0.196 0.049 0.335 0.109 0.513 0.201 0.059 0.031 0.118 0.061 0.178 0.092 0.094 0.050 0.094 0.050 0.191 0.1 0.066 0.034 0.132 0.069 0.198 0.103 0.4 0.209 0.798 0.423 1.193 0.641 0.424 0.234 0.853 0.457 1.286 0.673 0.055 0.027 0.11 0.055 0.166 0.083 0.228 0.113 0.455 0.222 0.692 0.314 0 0.036 0 0.071 0 0.108 0.142 0.036 0.284 0.071 0.431 0.108 0.005-0.047 0.010-0.095 0.015-0.144 0.137-0.634 0.836-1.204 1.353-1.55 0.398-0.239 0.822-0.402 1.271-0.515 0.059-0.015 0.059-0.015 0.118-0.030 1.12-0.175 2.075 0.094 2.993 0.725 0.116 0.088 0.227 0.178 0.336 0.275 0.047 0.040 0.047 0.040 0.096 0.081 0.681 0.619 1.105 1.584 1.154 2.492 0.006 0.464-0.038 0.858-0.173 1.306-0.012 0.051-0.023 0.102-0.035 0.154-0.085 0.365-0.222 0.627-0.45 0.923-0.032 0.043-0.065 0.085-0.098 0.129-0.198 0.254-0.406 0.499-0.619 0.74-0.044 0.050-0.088 0.1-0.134 0.152-0.118 0.111-0.118 0.111-0.28 0.111 0 1.387 0 2.773 0 4.202-2.898 0-5.796 0-8.781 0 0-1.173 0-2.347 0-3.556-0.414 0.16-0.414 0.16-0.8 0.354-0.042 0.024-0.083 0.047-0.126 0.072-0.041 0.024-0.083 0.048-0.125 0.072-0.085 0.049-0.169 0.097-0.254 0.146-0.055 0.032-0.055 0.032-0.111 0.064-0.093 0.046-0.093 0.046-0.2 0.046 0-2.862 0-5.724 0-8.673z"></path>
<path fill="#fefd4e" style="fill: var(--color3, #fefd4e)" d="M3.178 10.343c0.196 0.049 0.335 0.109 0.513 0.201 0.059 0.031 0.118 0.061 0.178 0.092 0.094 0.050 0.094 0.050 0.191 0.1 0.066 0.034 0.132 0.069 0.198 0.103 0.4 0.209 0.798 0.423 1.193 0.641 0.424 0.234 0.853 0.457 1.286 0.673 0.055 0.027 0.11 0.055 0.166 0.083 0.228 0.113 0.455 0.222 0.692 0.314 0 0.036 0 0.071 0 0.108 0.142 0.036 0.284 0.071 0.431 0.108 0.005-0.047 0.010-0.095 0.015-0.144 0.137-0.634 0.836-1.204 1.353-1.55 0.398-0.239 0.822-0.402 1.271-0.515 0.059-0.015 0.059-0.015 0.118-0.030 1.12-0.175 2.075 0.094 2.993 0.725 0.116 0.088 0.227 0.178 0.336 0.275 0.047 0.040 0.047 0.040 0.096 0.081 0.681 0.619 1.105 1.584 1.154 2.492 0.006 0.464-0.038 0.858-0.173 1.306-0.012 0.051-0.023 0.102-0.035 0.154-0.085 0.365-0.222 0.627-0.45 0.923-0.032 0.043-0.063 0.086-0.096 0.131-0.27 0.356-0.577 0.669-0.928 0.947-0.036 0-0.071 0-0.108 0 0-1.493 0-2.987 0-4.525-2.898 0-5.796 0-8.781 0 0 1.707 0 3.413 0 5.172-1.455 0.754-1.455 0.754-1.616 0.808 0-2.862 0-5.724 0-8.673z"></path>
<path fill="#fdfc4e" style="fill: var(--color4, #fdfc4e)" d="M8.158 16.435c0.183 0.066 0.246 0.158 0.361 0.313 0.132 0.186 0.132 0.186 0.295 0.342 0.117 0.147 0.095 0.274 0.094 0.46 0 0.055 0 0.055 0 0.112-0 0.122-0.001 0.243-0.003 0.365-0 0.084-0.001 0.169-0.001 0.253-0.001 0.222-0.002 0.444-0.004 0.666-0.002 0.266-0.003 0.532-0.004 0.799-0.002 0.404-0.005 0.809-0.007 1.213 0.569 0 1.138 0 1.724 0 0-0.924 0-1.849 0-2.801 0.36 0.008 0.36 0.008 0.727 0.017 0.659 0.007 1.267-0.016 1.84-0.376 0.126-0.072 0.126-0.072 0.342-0.072 0 1.333 0 2.667 0 4.040-2.862 0-5.724 0-8.673 0 0-1.191 0-2.382 0-3.609 0.539-0.323 0.539-0.323 0.862-0.431 0 1.067 0 2.133 0 3.232 0.551 0 1.102 0 1.67 0 0-1.369 0-2.738 0-4.148 0.16-0.089 0.32-0.178 0.485-0.269 0.162-0.108 0.162-0.108 0.293-0.104z"></path>
<path fill="#fefd4d" style="fill: var(--color5, #fefd4d)" d="M8.781 13.199c1.529 0 3.058 0 4.633 0 0 1.44 0 2.88 0 4.364-1.040 0.52-1.040 0.52-1.508 0.539-0.058 0.003-0.116 0.006-0.176 0.008-0.518 0.013-0.99-0.059-1.494-0.17 0-0.036 0-0.071 0-0.108-0.105-0.017-0.105-0.017-0.212-0.034-0.665-0.151-1.206-0.743-1.61-1.262-0.064-0.105-0.064-0.105-0.064-0.266 0.042-0.022 0.084-0.043 0.127-0.066 0.161-0.083 0.321-0.166 0.482-0.249 0.072-0.037 0.144-0.074 0.215-0.111 0.479-0.248 0.958-0.496 1.434-0.751 0.265-0.141 0.536-0.266 0.812-0.385-0.19-0.155-0.4-0.262-0.618-0.372-0.039-0.020-0.077-0.039-0.117-0.060-0.123-0.063-0.246-0.125-0.369-0.188-0.162-0.082-0.324-0.165-0.487-0.247-0.037-0.019-0.074-0.037-0.112-0.057-0.181-0.092-0.346-0.189-0.505-0.315-0.1-0.048-0.1-0.048-0.199-0.084-0.178-0.077-0.178-0.077-0.232-0.185z"></path>
<path fill="#9350d9" style="fill: var(--color6, #9350d9)" d="M4.795 13.037c2.898 0 5.796 0 8.781 0 0 1.493 0 2.987 0 4.525 0.089-0.071 0.178-0.142 0.269-0.215 0.036 0.018 0.071 0.036 0.108 0.054-0.098 0.108-0.098 0.108-0.216 0.215-0.053 0-0.107 0-0.162 0 0 1.387 0 2.773 0 4.202-2.898 0-5.796 0-8.781 0 0-1.173 0-2.347 0-3.556-0.036-0.018-0.071-0.036-0.108-0.054 0.036 0 0.071 0 0.108 0 0-1.707 0-3.413 0-5.172zM4.848 13.091c0 2.862 0 5.724 0 8.673 2.862 0 5.724 0 8.673 0 0-1.333 0-2.667 0-4.040-0.295 0.048-0.295 0.048-0.552 0.155-0.544 0.25-1.011 0.298-1.609 0.286-0.247-0.003-0.493-0.007-0.747-0.010 0 0.924 0 1.849 0 2.801-0.569 0-1.138 0-1.724 0 0.009-0.398 0.009-0.398 0.019-0.804 0.003-0.169 0.005-0.338 0.007-0.507 0.003-0.268 0.007-0.536 0.014-0.804 0.006-0.216 0.009-0.432 0.010-0.649 0.001-0.082 0.003-0.164 0.006-0.246 0.013-0.391 0.015-0.72-0.253-1.025-0.073-0.074-0.15-0.144-0.226-0.214-0.038-0.038-0.077-0.076-0.116-0.114 0-0.053 0-0.107 0-0.162 0.024 0.033 0.048 0.065 0.073 0.099 0.409 0.533 0.949 1.184 1.654 1.292 0.078 0.005 0.078 0.005 0.158 0.010 0 0.036 0 0.071 0 0.108 1.095 0.242 1.99 0.189 3.017-0.269 0.053-0.036 0.107-0.071 0.162-0.108 0.015-0.142 0.020-0.271 0.018-0.413 0-0.043 0-0.085 0-0.129-0-0.141-0.001-0.282-0.003-0.423-0-0.098-0.001-0.195-0.001-0.293-0.001-0.257-0.002-0.515-0.004-0.772-0.002-0.262-0.002-0.525-0.003-0.788-0.002-0.515-0.005-1.031-0.008-1.546-0.087 0-0.087 0-0.176 0-0.545 0.001-1.089 0.002-1.634 0.002-0.28 0-0.56 0.001-0.84 0.001-0.27 0.001-0.54 0.001-0.81 0.001-0.103 0-0.207 0-0.31 0.001-0.144 0-0.288 0-0.432 0-0.043 0-0.086 0-0.131 0.001-0.295-0.001-0.295-0.001-0.355-0.061 1.564 0 3.129 0 4.741 0 0 1.476 0 2.951 0 4.471 0.018 0 0.036 0 0.054 0 0-1.493 0-2.987 0-4.525-2.862 0-5.724 0-8.673 0z"></path>
<path fill="#ceb091" style="fill: var(--color7, #ceb091)" d="M4.795 13.037c2.898 0 5.796 0 8.781 0 0 1.493 0 2.987 0 4.525 0.089-0.071 0.178-0.142 0.269-0.215 0.036 0.018 0.071 0.036 0.108 0.054-0.098 0.108-0.098 0.108-0.216 0.215-0.053 0-0.107 0-0.162 0 0 1.387 0 2.773 0 4.202-2.898 0-5.796 0-8.781 0 0-1.173 0-2.347 0-3.556-0.036-0.018-0.071-0.036-0.108-0.054 0.036 0 0.071 0 0.108 0 0-1.707 0-3.413 0-5.172zM4.848 13.091c0 2.862 0 5.724 0 8.673 2.862 0 5.724 0 8.673 0 0-1.333 0-2.667 0-4.040-0.295 0.048-0.295 0.048-0.552 0.155-0.544 0.25-1.011 0.298-1.609 0.286-0.073-0.001-0.146-0.002-0.218-0.002-0.176-0.002-0.353-0.005-0.529-0.008 0.018-0.036 0.036-0.071 0.054-0.108 0.054 0.009 0.109 0.018 0.165 0.027 0.893 0.109 1.82-0.004 2.582-0.512 0.015-0.142 0.020-0.271 0.018-0.413 0-0.043 0-0.085 0-0.129-0-0.141-0.001-0.282-0.003-0.423-0-0.098-0.001-0.195-0.001-0.293-0.001-0.257-0.002-0.515-0.004-0.772-0.002-0.262-0.002-0.525-0.003-0.788-0.002-0.515-0.005-1.031-0.008-1.546-0.087 0-0.087 0-0.176 0-0.545 0.001-1.089 0.002-1.634 0.002-0.28 0-0.56 0.001-0.84 0.001-0.27 0.001-0.54 0.001-0.81 0.001-0.103 0-0.207 0-0.31 0.001-0.144 0-0.288 0-0.432 0-0.043 0-0.086 0-0.131 0.001-0.295-0.001-0.295-0.001-0.355-0.061 1.564 0 3.129 0 4.741 0 0 1.476 0 2.951 0 4.471 0.018 0 0.036 0 0.054 0 0-1.493 0-2.987 0-4.525-2.862 0-5.724 0-8.673 0z"></path>
<path fill="#eb7fee" style="fill: var(--color8, #eb7fee)" d="M23.057 15.407c0.147 0.098 0.244 0.165 0.323 0.323 0.008 0.113 0.013 0.227 0.017 0.34 0.002 0.068 0.005 0.135 0.007 0.205 0.002 0.071 0.004 0.142 0.006 0.215 0.002 0.072 0.005 0.144 0.007 0.217 0.006 0.177 0.011 0.354 0.017 0.531 0.080 0.027 0.080 0.027 0.162 0.054 0 0.036 0 0.071 0 0.108-0.125 0.017-0.125 0.017-0.269 0-0.098-0.135-0.098-0.135-0.162-0.269-0.051 0.043-0.102 0.087-0.155 0.131-0.215 0.183-0.356 0.207-0.636 0.204-0.179-0.017-0.3-0.072-0.448-0.173-0.129-0.158-0.134-0.34-0.128-0.541 0.036-0.19 0.138-0.265 0.29-0.375 0.341-0.142 0.712-0.141 1.077-0.162 0.006-0.077 0.010-0.155 0.013-0.232 0.003-0.043 0.005-0.086 0.008-0.131-0.010-0.129-0.010-0.129-0.113-0.217-0.214-0.115-0.426-0.101-0.662-0.066-0.188 0.104-0.252 0.158-0.313 0.364-0.003 0.040-0.007 0.080-0.010 0.121-0.053 0-0.107 0-0.162 0 0.009-0.227 0.035-0.351 0.172-0.535 0.266-0.196 0.649-0.164 0.96-0.111z"></path>
<path fill="#ec80ee" style="fill: var(--color9, #ec80ee)" d="M20.364 15.407c0.263 0.122 0.411 0.279 0.539 0.539 0 0.16 0 0.32 0 0.485-0.516 0-1.031 0-1.562 0 0.080 0.446 0.080 0.446 0.323 0.754 0.213 0.107 0.468 0.084 0.7 0.054 0.185-0.136 0.291-0.273 0.377-0.485 0.053 0.018 0.107 0.036 0.162 0.054-0.199 0.468-0.199 0.468-0.485 0.593-0.271 0.090-0.503 0.087-0.768-0.010-0.224-0.148-0.371-0.335-0.471-0.582-0.044-0.424-0.059-0.792 0.215-1.131 0.274-0.322 0.561-0.329 0.97-0.269z"></path>
<path fill="#ed80ee" style="fill: var(--color10, #ed80ee)" d="M24.62 14.653c0.729 0 1.458 0 2.209 0 0.304 0.79 0.304 0.79 0.397 1.054 0.022 0.061 0.043 0.123 0.066 0.186 0.152 0.431 0.302 0.861 0.453 1.292 0.025-0.072 0.025-0.072 0.051-0.146 0.023-0.065 0.046-0.13 0.070-0.197 0.023-0.064 0.045-0.128 0.068-0.193 0.057-0.16 0.12-0.317 0.183-0.474 0.079-0.196 0.151-0.393 0.22-0.593 0.027-0.077 0.027-0.077 0.054-0.156 0.037-0.106 0.072-0.213 0.108-0.319 0.018-0.051 0.036-0.102 0.054-0.154 0.016-0.046 0.031-0.092 0.047-0.139 0.061-0.106 0.061-0.106 0.175-0.149 0.033-0.004 0.067-0.008 0.101-0.012-0.105 0.302-0.21 0.603-0.315 0.905-0.070 0.2-0.139 0.4-0.207 0.6-0.146 0.425-0.304 0.839-0.501 1.243-0.071 0-0.142 0-0.215 0-0.020-0.055-0.040-0.109-0.061-0.166-0.128-0.344-0.255-0.686-0.4-1.023-0.191-0.451-0.358-0.917-0.455-1.397-0.32 0-0.64 0-0.97 0 0 0.853 0 1.707 0 2.586-0.053 0-0.107 0-0.162 0 0-0.853 0-1.707 0-2.586-0.32 0-0.64 0-0.97 0 0-0.053 0-0.107 0-0.162z"></path>
<path fill="#f181ee" style="fill: var(--color11, #f181ee)" d="M16.7 14.653c0.053 0 0.107 0 0.162 0 0 0.409 0 0.818 0 1.239 0.587 0 1.173 0 1.778 0 0-0.409 0-0.818 0-1.239 0.053 0 0.107 0 0.162 0 0 0.907 0 1.813 0 2.747-0.053 0-0.107 0-0.162 0 0-0.444 0-0.889 0-1.347-0.587 0-1.173 0-1.778 0 0 0.444 0 0.889 0 1.347-0.053 0-0.107 0-0.162 0 0-0.907 0-1.813 0-2.747z"></path>
<path fill="#9651da" style="fill: var(--color12, #9651da)" d="M23.219 16.323c0.019 0.309 0.021 0.544-0.162 0.808-0.175 0.164-0.338 0.176-0.569 0.185-0.186-0.006-0.275-0.013-0.438-0.108-0.099-0.183-0.1-0.303-0.071-0.508 0.207-0.262 0.411-0.287 0.727-0.327 0.056-0.007 0.056-0.007 0.113-0.015 0.275-0.036 0.275-0.036 0.399-0.036z"></path>
<path fill="#9852da" style="fill: var(--color13, #9852da)" d="M20.256 15.515c0.221 0.096 0.359 0.226 0.485 0.431 0 0.124 0 0.249 0 0.377-0.462 0-0.924 0-1.401 0 0.061-0.425 0.061-0.425 0.212-0.586 0.028-0.031 0.057-0.062 0.086-0.094 0.179-0.168 0.386-0.153 0.618-0.128z"></path>
<path fill="#fbf467" style="fill: var(--color14, #fbf467)" d="M8.781 13.199c1.529 0 3.058 0 4.633 0 0 1.44 0 2.88 0 4.364-0.018 0-0.036 0-0.054 0 0-1.422 0-2.844 0-4.31-1.333 0.018-2.667 0.036-4.040 0.054 0.018 0.071 0.036 0.142 0.054 0.216-0.287-0.066-0.375-0.106-0.593-0.323z"></path>
<path fill="#e87dec" style="fill: var(--color15, #e87dec)" d="M21.279 14.653c0.053 0 0.107 0 0.162 0 0 0.907 0 1.813 0 2.747-0.053 0-0.107 0-0.162 0 0-0.907 0-1.813 0-2.747z"></path>
<path fill="#e5d379" style="fill: var(--color16, #e5d379)" d="M5.71 17.724c0 1.067 0 2.133 0 3.232-0.036 0-0.071 0-0.108 0 0-1.031 0-2.062 0-3.125-0.036-0.018-0.071-0.036-0.108-0.054 0.108-0.054 0.108-0.054 0.215-0.054z"></path>
<path fill="#9f6bb6" style="fill: var(--color17, #9f6bb6)" d="M8.296 16.323c0.030 0.038 0.059 0.076 0.090 0.115 0.131 0.161 0.268 0.314 0.408 0.467 0.025 0.027 0.049 0.054 0.075 0.082 0.060 0.066 0.121 0.132 0.181 0.198-0.018 0.036-0.036 0.071-0.054 0.108-0.007 0.116-0.010 0.232-0.011 0.349-0.001 0.054-0.001 0.054-0.002 0.108-0.002 0.118-0.003 0.237-0.004 0.355-0.001 0.082-0.002 0.164-0.003 0.246-0.003 0.216-0.006 0.432-0.008 0.648-0.003 0.22-0.006 0.441-0.009 0.661-0.006 0.432-0.011 0.865-0.017 1.297-0.018 0-0.036 0-0.054 0 0.001-0.046 0.001-0.092 0.002-0.139 0.004-0.435 0.006-0.87 0.005-1.305-0-0.224 0-0.447 0.003-0.671 0.003-0.216 0.003-0.432 0.001-0.649-0-0.082 0.001-0.164 0.002-0.246 0.008-0.389 0.004-0.72-0.262-1.025-0.072-0.074-0.148-0.144-0.223-0.214-0.121-0.114-0.121-0.114-0.175-0.276 0.018-0.036 0.036-0.071 0.054-0.108z"></path>
<path fill="#a372ad" style="fill: var(--color18, #a372ad)" d="M10.559 17.993c0.516 0.036 1.031 0.071 1.562 0.108-0.167 0.111-0.202 0.121-0.39 0.12-0.044-0-0.088-0-0.134-0s-0.092-0.001-0.139-0.002c-0.045-0-0.091-0-0.138-0-0.247-0.002-0.46-0.023-0.708-0.064 0 0.924 0 1.849 0 2.801-0.018 0-0.036 0-0.054 0 0-0.978 0-1.956 0-2.963z"></path>
<path fill="#f2e575" style="fill: var(--color19, #f2e575)" d="M10.613 18.155c0.693 0.027 0.693 0.027 1.401 0.054 0 0.018 0 0.036 0 0.054-0.030 0.001-0.061 0.002-0.092 0.002-0.138 0.004-0.275 0.009-0.413 0.014-0.048 0.001-0.096 0.002-0.145 0.004-0.046 0.002-0.092 0.004-0.139 0.006-0.063 0.002-0.063 0.002-0.128 0.004-0.128 0.015-0.128 0.015-0.214 0.185-0.071-0.018-0.142-0.036-0.216-0.054 0 0.836 0 1.671 0 2.532-0.018 0-0.036 0-0.054 0 0-0.924 0-1.849 0-2.801z"></path>
<path fill="#d9c088" style="fill: var(--color20, #d9c088)" d="M12.768 10.667c0.027 0.053 0.027 0.053 0.054 0.108-0.178 0-0.356 0-0.539 0 0-0.036 0-0.071 0-0.108-0.352-0.053-0.695-0.060-1.050-0.057-0.082 0-0.082 0-0.165 0.001-0.133 0.001-0.267 0.002-0.4 0.003 0-0.018 0-0.036 0-0.054 0.645-0.164 1.476-0.109 2.101 0.108z"></path>
<path fill="#f7ed68" style="fill: var(--color21, #f7ed68)" d="M10.667 18.209c0.444 0 0.889 0 1.347 0 0 0.018 0 0.036 0 0.054-0.030 0.001-0.061 0.002-0.092 0.002-0.138 0.004-0.275 0.009-0.413 0.014-0.048 0.001-0.096 0.002-0.145 0.004-0.046 0.002-0.092 0.004-0.139 0.006-0.063 0.002-0.063 0.002-0.128 0.004-0.128 0.015-0.128 0.015-0.214 0.185-0.071-0.018-0.142-0.036-0.216-0.054 0-0.071 0-0.142 0-0.215z"></path>
<path fill="#a779a6" style="fill: var(--color22, #a779a6)" d="M8.296 16.323c0.027 0.034 0.053 0.069 0.081 0.104 0.182 0.223 0.374 0.436 0.566 0.65-0.036 0.036-0.071 0.071-0.108 0.108-0.089-0.095-0.178-0.191-0.266-0.286-0.025-0.027-0.050-0.054-0.076-0.082-0.118-0.129-0.194-0.218-0.25-0.386 0.018-0.036 0.036-0.071 0.054-0.108z"></path>
<path fill="#aa7da6" style="fill: var(--color23, #aa7da6)" d="M13.845 17.347c0.036 0.018 0.071 0.036 0.108 0.054-0.163 0.184-0.316 0.274-0.542 0.367-0.056 0.024-0.112 0.047-0.17 0.072-0.15 0.046-0.15 0.046-0.311-0.008 0.069-0.045 0.139-0.090 0.209-0.135 0.039-0.025 0.078-0.050 0.117-0.076 0.105-0.059 0.105-0.059 0.213-0.059 0.036-0.053 0.071-0.107 0.108-0.162 0 0.053 0 0.107 0 0.162 0.089-0.071 0.178-0.142 0.269-0.215z"></path>
<path fill="#e27aec" style="fill: var(--color24, #e27aec)" d="M23.165 16.808c0.1 0.169 0.119 0.29 0.108 0.485-0.036-0.053-0.071-0.107-0.108-0.162-0.042 0.046-0.084 0.091-0.128 0.138-0.12 0.103-0.177 0.131-0.337 0.137-0.134-0.014-0.265-0.033-0.397-0.060 0-0.018 0-0.036 0-0.054 0.032-0.002 0.064-0.004 0.097-0.006 0.254-0.021 0.456-0.038 0.658-0.209 0.073-0.139 0.073-0.139 0.108-0.269z"></path>
<path fill="#e27aeb" style="fill: var(--color25, #e27aeb)" d="M27.906 16.754c0.053 0.036 0.107 0.071 0.162 0.108-0.094 0.31-0.094 0.31-0.215 0.431-0.062-0.218-0.045-0.335 0.054-0.539z"></path>
<path fill="#e6d576" style="fill: var(--color26, #e6d576)" d="M12.283 10.613c0.080 0.006 0.159 0.013 0.239 0.020 0.044 0.004 0.089 0.008 0.134 0.011 0.055 0.011 0.055 0.011 0.111 0.022 0.018 0.036 0.036 0.071 0.054 0.108-0.178 0-0.356 0-0.539 0 0-0.053 0-0.107 0-0.162z"></path>
<path fill="#e7d679" style="fill: var(--color27, #e7d679)" d="M8.889 16.054c0 0.036 0 0.071 0 0.108-0.143 0.079-0.21 0.108-0.377 0.108-0.036 0.071-0.071 0.142-0.108 0.215-0.018-0.071-0.036-0.142-0.054-0.215 0.069-0.036 0.139-0.072 0.209-0.108 0.039-0.020 0.078-0.040 0.117-0.061 0.105-0.047 0.105-0.047 0.213-0.047z"></path>
<path fill="#ae80ac" style="fill: var(--color28, #ae80ac)" d="M4.256 18.478c0 0.036 0 0.071 0 0.108-0.124 0.119-0.19 0.16-0.364 0.172-0.060-0.005-0.060-0.005-0.121-0.010 0.137-0.151 0.273-0.269 0.485-0.269z"></path>
<path fill="#e9d975" style="fill: var(--color29, #e9d975)" d="M8.35 12.067c0.054 0.108 0.054 0.108 0.017 0.242-0.079 0.151-0.13 0.185-0.286 0.242 0.067-0.186 0.144-0.331 0.269-0.485z"></path>
<path fill="#ab58d8" style="fill: var(--color30, #ab58d8)" d="M23.219 16.323c0 0.16 0 0.32 0 0.485-0.018 0-0.036 0-0.054 0-0.018-0.107-0.036-0.213-0.054-0.323-0.16-0.027-0.16-0.027-0.323-0.054 0-0.018 0-0.036 0-0.054 0.31-0.054 0.31-0.054 0.431-0.054z"></path>
<path fill="#a455d8" style="fill: var(--color31, #a455d8)" d="M22.411 15.569c-0.044 0.104-0.044 0.104-0.108 0.216-0.053 0.018-0.107 0.036-0.162 0.054-0.040 0.109-0.040 0.109-0.054 0.216-0.013-0.121-0.013-0.121 0-0.269 0.175-0.216 0.175-0.216 0.323-0.216z"></path>
<path fill="#faf55c" style="fill: var(--color32, #faf55c)" d="M8.997 13.253c0.107 0 0.213 0 0.323 0 0.018 0.089 0.036 0.178 0.054 0.269-0.197-0.067-0.258-0.090-0.377-0.269z"></path>
</symbol>
</svg>
