<svg style="display: none;">
        <symbol id="rewind-10" viewBox="0 0 240 240">
            <path d="M113.2,131.078a21.589,21.589,0,0,0-17.7-10.6,21.589,21.589,0,0,0-17.7,10.6,44.769,44.769,0,0,0,0,46.3,21.589,21.589,0,0,0,17.7,10.6,21.589,21.589,0,0,0,17.7-10.6,44.769,44.769,0,0,0,0-46.3Zm-17.7,47.2c-7.8,0-14.4-11-14.4-24.1s6.6-24.1,14.4-24.1,14.4,11,14.4,24.1S103.4,178.278,95.5,178.278Zm-43.4,9.7v-51l-4.8,4.8-6.8-6.8,13-13a4.8,4.8,0,0,1,8.2,3.4v62.7l-9.6-.1Zm162-130.2v125.3a4.867,4.867,0,0,1-4.8,4.8H146.6v-19.3h48.2v-96.4H79.1v19.3c0,5.3-3.6,7.2-8,4.3l-41.8-27.9a6.013,6.013,0,0,1-2.7-8,5.887,5.887,0,0,1,2.7-2.7l41.8-27.9c4.4-2.9,8-1,8,4.3v19.3H209.2A4.974,4.974,0,0,1,214.1,57.778Z"/>
        </symbol>
        <symbol id="skip-10" viewBox="0 0 240 240">                                                                                                                                                                                                                                                                                                                                                                                                                                                                                                                                                                                                                                                                                                                                                                                                                                                                                                                                                                                                                                                                                                                                                                                                                                                                                                                                                                                                                                                                                                                                                                                     
          <g transform="matrix(0.2624566853046417, 0, 0, 0.2624566853046417, -73.62043762207031, -18.99883460998535)">
          <g transform="matrix(4.083333079020182, 0, 0, 4.083333079020182, 210.00003504725373, 0)">                                                                                                                                                                                                                                                                                                                                                                                                                                                                                                                                                                                                                                                                                                                                                                                                                                                                                                                                                                                                          
            <path d="M 113.2 131.078 C 109.47928095074741 124.77174293694137 102.81578521882174 120.78117490152928 95.5 120.47800000000001 C 88.18421478117826 120.78117490152928 81.52071904925258 124.77174293694137 77.8 131.078 C 69.199914764706 145.31325341712 69.199914764706 163.14274658288002 77.8 177.378 C 81.52071904925259 183.68425706305862 88.18421478117826 187.6748250984707 95.5 187.97799999999998 C 102.81578521882174 187.6748250984707 109.47928095074742 183.68425706305862 113.2 177.378 C 121.800085235294 163.14274658288002 121.800085235294 145.31325341711994 113.2 131.07799999999997 L 113.2 131.078 Z M 95.5 178.27800000000002 C 87.7 178.27800000000002 81.1 167.27800000000002 81.1 154.17800000000003 C 81.1 141.07800000000003 87.69999999999999 130.07800000000003 95.5 130.07800000000003 C 103.30000000000001 130.07800000000003 109.9 141.07800000000003 109.9 154.17800000000003 C 109.9 167.27800000000002 103.4 178.278 95.5 178.278 L 95.5 178.27800000000002 Z M 52.1 187.978 L 52.1 136.978 L 47.300000000000004 141.77800000000002 L 40.50000000000001 134.978 L 53.50000000000001 121.97800000000001 C 56.10823781996381 119.36066761609388 60.571731877202076 120.54833513864943 61.53428930183057 124.1158015418025 C 61.64532089726684 124.52731100219678 61.70104777614503 124.95177593528257 61.7 125.37800000000001 L 61.7 188.07800000000003 L 52.1 187.97800000000004 L 52.1 187.978 Z" transform="matrix(1, 0, 0, 1, 79.95420633083285, 0)"/>
            <path d="M 84.4199447631836 46.86417770385742"></g><g transform="matrix(4.083333333333333, 0, 0, 4.083333333333333, 210.0000045296752, 0.000004529675209141715)">
            <path d="M 214.1 57.77800000000002 L 214.1 183.07800000000003 C 214.06395684534948 185.7138928601036 211.935892859576 187.84195680676768 209.29999999999998 187.87800000000004 L 146.6 187.87800000000004 L 146.6 168.57800000000003 L 194.8 168.57800000000003 L 194.8 72.17800000000003 L 79.1 72.17800000000003 L 79.1 91.47800000000002 C 79.1 96.77800000000002 75.5 98.67800000000003 71.1 95.77800000000002 L 29.299999999999997 67.87800000000001 C 26.364262179140326 66.39791334001293 25.161566165645404 62.83436959429663 26.599999999999998 59.878000000000014 C 27.17502111981831 58.70301508726242 28.125015087701698 57.75302112071597 29.299999999999997 57.17800000000001 L 71.1 29.278000000000013 C 75.5 26.378000000000014 79.1 28.278000000000013 79.1 33.57800000000001 L 79.1 52.878000000000014 L 209.2 52.878000000000014 C 211.88956897019057 52.917724641011525 214.0602752928723 55.08843103078595 214.1 57.778 L 214.1 57.77800000000002 Z" transform="matrix(-0.9999999999999999, 0, 0, 0.9999999999999999, 240.09397679496814, 0)"/></g></g>    
       </symbol>
        <symbol id="play" viewBox="0 0 240 240">
            <path d="M62.8,199.5c-1,0.8-2.4,0.6-3.3-0.4c-0.4-0.5-0.6-1.1-0.5-1.8V42.6c-0.2-1.3,0.7-2.4,1.9-2.6c0.7-0.1,1.3,0.1,1.9,0.4l154.7,77.7c2.1,1.1,2.1,2.8,0,3.8L62.8,199.5z"/>
        </symbol>
        <symbol id="pause" viewBox="0 0 240 240">
            <path d="M100,194.9c0.2,2.6-1.8,4.8-4.4,5c-0.2,0-0.4,0-0.6,0H65c-2.6,0.2-4.8-1.8-5-4.4c0-0.2,0-0.4,0-0.6V45c-0.2-2.6,1.8-4.8,4.4-5c0.2,0,0.4,0,0.6,0h30c2.6-0.2,4.8,1.8,5,4.4c0,0.2,0,0.4,0,0.6V194.9z M180,45.1c0.2-2.6-1.8-4.8-4.4-5c-0.2,0-0.4,0-0.6,0h-30c-2.6-0.2-4.8,1.8-5,4.4c0,0.2,0,0.4,0,0.6V195c-0.2,2.6,1.8,4.8,4.4,5c0.2,0,0.4,0,0.6,0h30c2.6,0.2,4.8-1.8,5-4.4c0-0.2,0-0.4,0-0.6V45.1z"/>
        </symbol>
    </svg>
