<?xml version="1.0" encoding="UTF-8"?>
<svg version="1.1" xmlns="http://www.w3.org/2000/svg" width="784" height="600">
<path d="M0 0 C1.53163217 0.88164753 3.05095239 1.78495913 4.55859375 2.70703125 C10.35639535 6.22286797 16.20504186 9.64719118 22.0625 13.0625 C23.59874023 13.9606543 23.59874023 13.9606543 25.16601562 14.87695312 C30.44473091 17.95648479 35.74272575 20.99012041 41.09350586 23.94262695 C43.5016951 25.27824836 45.87792234 26.6638693 48.25 28.0625 C61.14665417 35.60459396 74.11085972 43.0126514 87.25 50.125 C94.32739432 53.95976836 101.32919021 57.8852799 108.24707031 62.00048828 C114.79590873 65.8956796 121.39605944 69.69911992 128 73.5 C130.23708009 74.79149186 132.47406107 76.08315542 134.7109375 77.375 C138.52173792 79.57490768 142.33841737 81.76352833 146.1640625 83.9375 C166.32144521 95.4621066 166.32144521 95.4621066 169 104 C169.94741014 110.38425239 169.17641733 114.84788525 165.58203125 120.2109375 C157.14148453 129.7560496 143.16223002 135.64301473 132.2097168 141.79858398 C116.43291133 150.67533518 100.85447839 159.89375206 85.27563477 169.11206055 C69.13412423 178.65814613 52.91794057 188.06823794 36.62130737 197.3465271 C29.85050098 201.20263885 23.09967946 205.08326599 16.4375 209.125 C11.45206378 212.14857474 6.4294054 215.05403399 1.27734375 217.78515625 C-0.51198574 218.73966992 -2.26420067 219.76378791 -4 220.8125 C-9.88601286 223.14238009 -15.69503605 223.60458071 -21.8125 222 C-27.92001481 218.16783384 -31.00292789 213.90824916 -33 207 C-33.2784729 204.03860474 -33.2784729 204.03860474 -33.31884766 200.90283203 C-33.34865219 199.13167526 -33.34865219 199.13167526 -33.37905884 197.32473755 C-33.39061005 196.06515228 -33.40216125 194.80556702 -33.4140625 193.5078125 C-33.44311172 191.55619705 -33.44311172 191.55619705 -33.4727478 189.56515503 C-33.52387939 186.12279236 -33.56360588 182.68039078 -33.60089111 179.237854 C-33.64105048 175.71836879 -33.6920881 172.19904277 -33.7421875 168.6796875 C-33.83872167 161.78657491 -33.92319776 154.89335992 -34 148 C-81.25888581 148.0782382 -128.51776948 148.15766081 -175.77664185 148.2436676 C-176.47559555 148.24493928 -177.17454926 148.24621096 -177.89468338 148.24752118 C-193.08321447 148.27516269 -208.27174514 148.30302567 -223.4602754 148.33111694 C-230.90824993 148.34489066 -238.35622455 148.35861542 -245.80419922 148.37231445 C-246.54537968 148.37367854 -247.28656013 148.37504262 -248.05020061 148.37644804 C-272.0931143 148.42067414 -296.13603219 148.46166425 -320.17895437 148.50098413 C-344.87706849 148.54139254 -369.57517478 148.58504986 -394.27327581 148.63282111 C-397.75817385 148.6395601 -401.24307197 148.64626178 -404.72797012 148.65294075 C-405.41387792 148.65425648 -406.09978571 148.65557221 -406.80647859 148.6569278 C-417.8673749 148.67804902 -428.92827419 148.69572442 -439.98917841 148.71212531 C-451.09719794 148.72866909 -462.20520702 148.7488904 -473.31321369 148.77266841 C-479.3366035 148.78545319 -485.35998496 148.79658291 -491.3833847 148.80341911 C-496.8891291 148.80970296 -502.39484473 148.82050846 -507.90057339 148.8350333 C-509.90059262 148.83948939 -511.90061649 148.84223282 -513.90064047 148.84316199 C-516.60302363 148.84465865 -519.30532209 148.85218827 -522.00768852 148.8613348 C-523.19344049 148.8598008 -523.19344049 148.8598008 -524.40314704 148.85823581 C-528.33029491 148.79833105 -528.33029491 148.79833105 -532 150 C-532.33 268.14 -532.66 386.28 -533 508 C-444.395 508.495 -444.395 508.495 -354 509 C-353 582 -353 582 -354 585 C-383.69105587 585.04563323 -413.38211056 585.08102352 -443.07319394 585.10213066 C-446.57915084 585.10463205 -450.08510766 585.10722069 -453.59106445 585.10986328 C-454.63801598 585.11065021 -454.63801598 585.11065021 -455.70611804 585.11145304 C-467.00488814 585.1201537 -478.30363788 585.13592182 -489.6023959 585.15430559 C-501.19748611 585.17301406 -512.79256444 585.18396904 -524.38766903 585.18817699 C-530.89981423 585.19078591 -537.41191324 585.19692428 -543.92404366 585.21146011 C-550.0528158 585.22502948 -556.18152271 585.22922392 -562.31030846 585.22621536 C-564.56011433 585.22676581 -566.80992238 585.23074706 -569.05971527 585.23841095 C-572.1314482 585.24836196 -575.20293483 585.24596817 -578.27467346 585.24050903 C-579.16476547 585.24633472 -580.05485748 585.2521604 -580.97192198 585.25816262 C-589.4888258 585.21725428 -596.37604008 583.63499563 -602.63671875 577.359375 C-607.38069152 572.07553123 -609.21344469 567.79387961 -609.40895557 560.59515572 C-609.44695717 559.30196635 -609.48495877 558.00877699 -609.52411193 556.67640007 C-609.55534341 555.24807629 -609.58592367 553.81973816 -609.61592102 552.39138794 C-609.65372078 550.87416613 -609.69169375 549.35694863 -609.72982627 547.83973515 C-610.16208978 529.48464376 -610.14994664 511.12482476 -610.14538372 492.76574206 C-610.1451758 487.52126486 -610.15073429 482.27679279 -610.15544128 477.03231812 C-610.16366002 466.81399262 -610.16649192 456.59567289 -610.16705366 446.37734435 C-610.16753221 438.06974979 -610.16960358 429.76215711 -610.17275429 421.45456314 C-610.18152999 397.83067759 -610.18617749 374.20679653 -610.18542381 350.58290933 C-610.18538386 349.31595453 -610.1853439 348.04899972 -610.18530273 346.74365234 C-610.18526185 345.47513078 -610.18522097 344.20660922 -610.18517885 342.89964761 C-610.18477129 322.28439099 -610.19437657 301.66915254 -610.2084411 281.05390118 C-610.22281397 259.81755321 -610.22971106 238.58121411 -610.22884732 217.34486115 C-610.2285161 205.44893314 -610.2312317 193.55302428 -610.24202538 181.65710068 C-610.25114146 171.54713311 -610.25329581 161.43719342 -610.24651595 151.32722352 C-610.2432589 146.17675782 -610.24316508 141.02634558 -610.2518692 135.87588501 C-610.25976896 131.15285888 -610.25826763 126.42992832 -610.24958507 121.70690443 C-610.24805794 120.00778143 -610.2498362 118.30865118 -610.25544515 116.60953675 C-610.33126174 91.99378522 -610.33126174 91.99378522 -607 82 C-606.34 82 -605.68 82 -605 82 C-604.93554688 81.41605469 -604.87109375 80.83210938 -604.8046875 80.23046875 C-603.67245017 77.09208274 -601.87072716 76.14696409 -599.125 74.3125 C-598.24070312 73.71050781 -597.35640625 73.10851562 -596.4453125 72.48828125 C-591.71544281 69.60955864 -587.3124564 69.85512934 -581.94759846 69.8613348 C-581.00540116 69.85849258 -580.06320385 69.85565036 -579.09245512 69.85272202 C-575.90540352 69.84433754 -572.7183881 69.84310388 -569.53132629 69.84178162 C-567.23534724 69.83721882 -564.93936902 69.83221922 -562.64339179 69.82681805 C-556.31089663 69.81319538 -549.97840685 69.80580667 -543.64590085 69.79939139 C-537.52550628 69.79271015 -531.40512174 69.78039966 -525.28473519 69.76867336 C-512.76112059 69.74484076 -500.23750286 69.72564587 -487.71387672 69.70907402 C-475.30997094 69.6926455 -462.90607101 69.67416802 -450.50217247 69.65294075 C-449.73156988 69.65162314 -448.96096729 69.65030554 -448.1670131 69.648948 C-444.25367496 69.64224612 -440.34033688 69.6355075 -436.42699882 69.62875474 C-408.69295606 69.58096367 -380.95890784 69.53778671 -353.22485352 69.49731445 C-326.27790937 69.45798029 -299.33096975 69.41656159 -272.3840332 69.37231445 C-271.55373269 69.37095192 -270.72343219 69.36958939 -269.86797106 69.36818558 C-261.52991949 69.35450046 -253.191868 69.3407729 -244.85381656 69.32701423 C-227.86752585 69.29898603 -210.88123469 69.27124118 -193.89494324 69.2436676 C-193.11390327 69.2423994 -192.33286329 69.2411312 -191.52815545 69.23982458 C-139.35211097 69.15513719 -87.17605621 69.07707612 -35 69 C-34.99413376 68.34346939 -34.98826752 67.68693878 -34.98222351 67.01051331 C-34.9180524 60.14776343 -34.83357211 53.28547223 -34.73754883 46.4230957 C-34.70439264 43.86554022 -34.67633205 41.3079132 -34.65356445 38.75024414 C-34.61984785 35.06365614 -34.56752145 31.37771821 -34.51171875 27.69140625 C-34.50532883 26.55667374 -34.4989389 25.42194122 -34.49235535 24.25282288 C-34.33797323 15.82605698 -33.14901433 7.93136544 -28 1 C-19.33847048 -6.79537656 -9.74072528 -4.80617186 0 0 Z " fill="#F39C11" transform="translate(613,8)"/>
<path d="M0 0 C21.37720503 16.48188301 30.25352899 41.29788436 33.89553833 67.15989685 C35.67510257 81.70413039 35.3318865 96.42628913 35.27392578 111.05395508 C35.25682136 115.41283304 35.26698878 119.77116187 35.2842617 124.1300211 C35.40661245 160.58897531 33.50147976 198.05502808 7.3203125 226.28515625 C-9.46970264 242.25374208 -31.32285729 248.76630717 -54.15722656 248.64868164 C-71.78701702 248.09846464 -87.66315274 243.27402525 -102.1171875 233.22265625 C-102.9525 232.660625 -103.7878125 232.09859375 -104.6484375 231.51953125 C-124.31377752 217.20615086 -133.00330379 191.80338605 -136.67797852 168.69628906 C-138.75442264 152.90716012 -138.45673036 136.95707148 -138.43286133 121.06420898 C-138.42823463 117.72032199 -138.43514457 114.37679909 -138.45336914 111.03295898 C-138.71969197 61.71939303 -138.71969197 61.71939303 -131.1171875 40.22265625 C-130.83230469 39.37445313 -130.54742188 38.52625 -130.25390625 37.65234375 C-123.59988777 19.41974686 -110.59762302 1.99575561 -92.8046875 -6.52734375 C-86.72829295 -9.08356072 -80.46664608 -11.02339198 -74.1171875 -12.77734375 C-72.94414063 -13.13699219 -71.77109375 -13.49664062 -70.5625 -13.8671875 C-47.08188515 -19.61782743 -19.56054425 -13.66173783 0 0 Z M-75.80859375 34.04296875 C-89.43659576 50.91573315 -88.28130276 74.75065003 -88.25 95.27734375 C-88.25067659 96.8742779 -88.25164954 98.47121195 -88.25289917 100.06814575 C-88.25436034 103.39098099 -88.25227369 106.71378906 -88.24755859 110.03662109 C-88.24187171 114.2439027 -88.24514394 118.45112033 -88.25113106 122.65839958 C-88.25478782 125.94972188 -88.25357477 129.24102965 -88.25100327 132.53235245 C-88.25034756 134.08131035 -88.25111347 135.63026969 -88.25348282 137.17922592 C-88.26317945 145.29751242 -88.12663294 153.38256333 -87.65869141 161.48876953 C-87.61826784 162.1904167 -87.57784428 162.89206387 -87.53619576 163.61497307 C-87.21979658 168.6020453 -86.61572795 173.38610113 -85.3671875 178.22265625 C-85.1909082 178.92777344 -85.01462891 179.63289062 -84.83300781 180.359375 C-82.31407936 189.87239624 -76.97660289 200.18498664 -68.19726562 205.3527832 C-62.47852201 208.17631856 -57.44698688 208.89590807 -51.1171875 208.78515625 C-49.79618042 208.76980835 -49.79618042 208.76980835 -48.44848633 208.75415039 C-41.93488934 208.54024214 -37.12303601 207.63497015 -32.1171875 203.22265625 C-31.48941406 202.71476563 -30.86164063 202.206875 -30.21484375 201.68359375 C-20.18469876 192.73492317 -17.19764723 179.09802371 -16.1171875 166.22265625 C-15.98267136 162.84374087 -15.97021428 159.46944935 -15.97192383 156.08813477 C-15.96856522 155.11777283 -15.9652066 154.14741089 -15.96174622 153.14764404 C-15.9523097 149.96560356 -15.95029699 146.78361607 -15.94921875 143.6015625 C-15.94600178 141.37393676 -15.94263738 139.14631122 -15.93913269 136.91868591 C-15.93316018 132.25950633 -15.93129093 127.60034525 -15.93188477 122.94116211 C-15.93198644 116.98871055 -15.91832052 111.03637813 -15.90111256 105.08395481 C-15.889964 100.48641928 -15.88796641 95.88891233 -15.88849449 91.29136467 C-15.88731921 89.09745815 -15.88292299 86.90355078 -15.87516212 84.70965767 C-15.86530172 81.6352121 -15.86826379 78.56102247 -15.87426758 75.48657227 C-15.86864807 74.59223984 -15.86302856 73.69790741 -15.85723877 72.776474 C-15.9171491 60.62769452 -18.4162857 45.91088755 -26.1171875 36.22265625 C-26.6534375 35.43890625 -27.1896875 34.65515625 -27.7421875 33.84765625 C-28.1959375 33.31140625 -28.6496875 32.77515625 -29.1171875 32.22265625 C-29.7771875 32.22265625 -30.4371875 32.22265625 -31.1171875 32.22265625 C-31.6121875 30.73765625 -31.6121875 30.73765625 -32.1171875 29.22265625 C-33.80305824 28.01957388 -33.80305824 28.01957388 -35.8671875 27.09765625 C-36.54265625 26.76507813 -37.218125 26.4325 -37.9140625 26.08984375 C-51.12964986 20.88796362 -66.24754593 23.75324985 -75.80859375 34.04296875 Z " fill="#F39C12" transform="translate(650.1171875,347.77734375)"/>
<path d="M0 0 C1.13025941 5.41059474 1.12456321 10.63258263 1.08901978 16.12983704 C1.08649621 17.146979 1.08397265 18.16412097 1.08137262 19.21208543 C1.07165479 22.61839491 1.05461992 26.02462797 1.03759766 29.4309082 C1.02909014 31.87348794 1.02101881 34.31606922 1.01335144 36.75865173 C0.99346522 42.70186174 0.96878129 48.6450402 0.9417484 54.58822093 C0.91989112 59.41596192 0.9000446 64.2437073 0.88163376 69.07146263 C0.87770057 70.10224452 0.87770057 70.10224452 0.87368792 71.15385028 C0.86837034 72.54981133 0.86305756 73.9457724 0.85774951 75.34173348 C0.80776805 88.42489556 0.75153439 101.50802504 0.69314377 114.59115192 C0.64314384 125.82645837 0.59844582 137.06177575 0.55761719 148.29711914 C0.51021228 161.34135035 0.45959928 174.38556246 0.40379179 187.42976063 C0.39785646 188.8190458 0.39192511 190.20833099 0.38599777 191.5976162 C0.38307939 192.2812049 0.380161 192.96479361 0.37715418 193.66909713 C0.35676959 198.4957497 0.33869218 203.32240779 0.32149124 208.14907265 C0.29830317 214.63577148 0.26985675 221.12243254 0.23780251 227.60909462 C0.22680614 229.99686965 0.21752689 232.38465326 0.21003914 234.77244186 C0.19959244 238.01669607 0.18308694 241.26086225 0.16494751 244.50508118 C0.16245717 245.9420056 0.16245717 245.9420056 0.15991652 247.40795881 C0.11415105 253.88584895 0.11415105 253.88584895 -1 255 C-2.50418739 255.09311889 -4.01271356 255.11746028 -5.51977539 255.11352539 C-6.96115623 255.11341209 -6.96115623 255.11341209 -8.43165588 255.11329651 C-9.476436 255.10813522 -10.52121613 255.10297394 -11.59765625 255.09765625 C-13.19364906 255.09553383 -13.19364906 255.09553383 -14.82188416 255.09336853 C-18.23545083 255.08775064 -21.648953 255.07519511 -25.0625 255.0625 C-27.37044176 255.05748731 -29.67838455 255.052924 -31.98632812 255.04882812 C-37.65757426 255.0377754 -43.32878253 255.02101987 -49 255 C-50.20496945 251.38509166 -50.15325871 248.0757508 -50.15821838 244.31221008 C-50.16562535 243.12617676 -50.16562535 243.12617676 -50.17318195 241.91618317 C-50.1885788 239.25833325 -50.19692349 236.60050753 -50.20532227 233.94262695 C-50.21489907 232.04072862 -50.22490903 230.13883242 -50.23532104 228.23693848 C-50.26239758 223.06580709 -50.28339227 217.89466655 -50.30332303 212.72350335 C-50.32516563 207.32225892 -50.35256276 201.92104278 -50.37937927 196.51982117 C-50.42932952 186.28826359 -50.4742597 176.05669033 -50.51740164 165.82510203 C-50.56675409 154.1783188 -50.6216796 142.53156396 -50.67708123 130.88480818 C-50.79093708 106.92323193 -50.89776827 82.96162846 -51 59 C-54.98248756 59.54767163 -58.76048708 60.08835668 -62.58203125 61.34765625 C-63.83802124 61.75552368 -63.83802124 61.75552368 -65.11938477 62.17163086 C-66.00811279 62.46561768 -66.89684082 62.75960449 -67.8125 63.0625 C-69.75489766 63.69106502 -71.69762103 64.31862419 -73.640625 64.9453125 C-74.66478516 65.27692383 -75.68894531 65.60853516 -76.74414062 65.95019531 C-82.50784369 67.80861787 -88.2822727 69.63120434 -94.0625 71.4375 C-95.17407471 71.79142822 -96.28564941 72.14535645 -97.4309082 72.51000977 C-98.99844849 72.99812134 -98.99844849 72.99812134 -100.59765625 73.49609375 C-101.98223022 73.93199829 -101.98223022 73.93199829 -103.39477539 74.37670898 C-106.0290616 75.00695289 -108.30256794 75.11725317 -111 75 C-111.07412765 69.78559487 -111.12859104 64.57149607 -111.16479492 59.35668945 C-111.17988641 57.58254657 -111.20036191 55.80844102 -111.22631836 54.03442383 C-111.26268641 51.48509513 -111.27972238 48.93625941 -111.29296875 46.38671875 C-111.30845261 45.59287277 -111.32393646 44.79902679 -111.33988953 43.98112488 C-111.34156565 38.50329683 -111.34156565 38.50329683 -109.67797852 36.05200195 C-106.90386962 34.31278542 -103.85673414 33.45152063 -100.75 32.5 C-91.97758264 29.69603519 -83.29729137 26.65870319 -74.625 23.5625 C-71.9246159 22.59987653 -69.22403438 21.63780759 -66.5234375 20.67578125 C-65.87038635 20.44301483 -65.21733521 20.21024841 -64.54449463 19.97042847 C-59.12144798 18.03906996 -53.68766276 16.13971534 -48.25 14.25 C-41.86812513 12.03013159 -35.52147963 9.72787482 -29.1875 7.375 C-26.12691669 6.24472475 -23.06434388 5.12003814 -20 4 C-19.27280762 3.73348633 -18.54561523 3.46697266 -17.79638672 3.19238281 C-15.74398831 2.44733087 -13.68608362 1.72062274 -11.625 1 C-10.46226562 0.5875 -9.29953125 0.175 -8.1015625 -0.25 C-4.9164614 -1.02020077 -3.10549472 -0.93048531 0 0 Z " fill="#F39C11" transform="translate(428,336)"/>
</svg>
