<?xml version="1.0" encoding="utf-8"?>
<svg xmlns="http://www.w3.org/2000/svg" viewBox="0 0 240 240">
  <g transform="matrix(-1, 0, 0, 1, 503.8466, 60.022729)" style="">
    <path d="M 247.001 213.055 C 243.28 206.749 236.617 202.758 229.301 202.455 C 221.985 202.758 215.322 206.749 211.601 213.055 C 203.001 227.29 203.001 245.12 211.601 259.355 C 215.322 265.661 221.985 269.652 229.301 269.955 C 236.617 269.652 243.28 265.661 247.001 259.355 C 255.601 245.12 255.601 227.29 247.001 213.055 Z M 229.301 260.255 C 221.501 260.255 214.901 249.255 214.901 236.155 C 214.901 223.055 221.501 212.055 229.301 212.055 C 237.101 212.055 243.701 223.055 243.701 236.155 C 243.701 249.255 237.201 260.255 229.301 260.255 Z M 185.901 269.955 L 185.901 218.955 L 181.101 223.755 L 174.301 216.955 L 187.301 203.955 C 189.909 201.338 194.373 202.525 195.335 206.093 C 195.446 206.504 195.502 206.929 195.501 207.355 L 195.501 270.055 L 185.901 269.955 Z M 347.901 139.755 L 347.901 265.055 C 347.865 267.691 345.737 269.819 343.101 269.855 L 280.401 269.855 L 280.401 250.555 L 328.601 250.555 L 328.601 154.155 L 212.901 154.155 L 212.901 173.455 C 212.901 178.755 209.301 180.655 204.901 177.755 L 163.101 149.855 C 160.165 148.375 158.963 144.811 160.401 141.855 C 160.976 140.68 161.926 139.73 163.101 139.155 L 204.901 111.255 C 209.301 108.355 212.901 110.255 212.901 115.555 L 212.901 134.855 L 343.001 134.855 C 345.691 134.895 347.861 137.065 347.901 139.755 Z"/>
  </g>
</svg>
